<svg version="1.1" id="Layer_1" xmlns="http://www.w3.org/2000/svg" xmlns:xlink="http://www.w3.org/1999/xlink" x="0px" y="0px"
	 width="100%" viewBox="0 0 2393 1794" enable-background="new 0 0 2393 1794" xml:space="preserve">
<path fill="#FEFEFE" opacity="1.000000" stroke="none" 
	d="
M2396.000000,672.000000 
	C2396.000000,1046.666626 2396.000000,1421.333374 2396.000000,1796.000000 
	C2349.137207,1796.000000 2302.502686,1796.000000 2255.184570,1795.253906 
	C2258.716064,1793.626343 2262.965088,1792.882568 2267.139648,1791.840942 
	C2290.659424,1785.971436 2311.041504,1774.665527 2327.123047,1756.319946 
	C2343.976562,1737.093628 2350.589844,1714.162964 2349.546143,1689.061157 
	C2348.680176,1668.238403 2340.812256,1650.301392 2324.297119,1636.892700 
	C2313.330322,1627.988770 2300.985596,1621.122437 2287.306396,1617.930176 
	C2261.818359,1611.982422 2236.115479,1606.924561 2210.427734,1601.875244 
	C2197.672119,1599.368164 2185.072021,1596.628418 2173.512207,1590.433350 
	C2157.284180,1581.736450 2148.049805,1568.540283 2147.687500,1549.765015 
	C2147.326904,1531.098389 2156.701904,1518.214966 2172.462646,1509.694214 
	C2201.443604,1494.025757 2231.065430,1495.609131 2260.678711,1507.728760 
	C2279.262939,1515.334473 2289.022705,1529.966064 2292.203613,1549.432983 
	C2292.656738,1552.207275 2293.578613,1554.905029 2294.143311,1557.093994 
	C2310.105225,1557.093994 2324.967773,1557.093994 2340.495605,1557.093994 
	C2339.631348,1551.215576 2339.069092,1545.971313 2338.067871,1540.812256 
	C2331.660645,1507.798706 2313.922363,1483.512817 2282.406982,1470.576660 
	C2246.478760,1455.829102 2209.403809,1453.689209 2172.209473,1464.407715 
	C2135.348145,1475.030029 2103.865234,1504.929199 2101.752441,1548.982666 
	C2100.372314,1577.755981 2109.520020,1601.926636 2133.154785,1619.556641 
	C2148.037842,1630.658569 2164.921631,1637.756470 2182.801758,1641.946777 
	C2202.472656,1646.556763 2222.479736,1649.712646 2242.265137,1653.860962 
	C2257.191895,1656.990845 2272.199707,1659.952759 2285.926514,1667.196167 
	C2294.744141,1671.849243 2300.172119,1678.830200 2302.296143,1688.529297 
	C2306.066895,1705.751221 2301.585449,1720.669434 2289.851074,1733.584229 
	C2281.801758,1742.443237 2271.812500,1748.434937 2260.419922,1751.543579 
	C2235.444580,1758.358765 2210.378174,1757.568115 2185.867432,1749.553589 
	C2166.622559,1743.260986 2150.862061,1731.688477 2141.290771,1713.398926 
	C2137.200928,1705.583618 2134.849609,1696.858521 2131.631348,1688.343140 
	C2116.131836,1688.343140 2100.348633,1688.343140 2084.184814,1688.343140 
	C2084.873779,1692.649048 2085.328369,1696.251343 2086.038330,1699.802856 
	C2090.570557,1722.471802 2099.626709,1742.897217 2116.601074,1759.083374 
	C2135.190674,1776.809814 2157.980469,1786.383179 2182.597168,1792.291748 
	C2185.841309,1793.070190 2188.871094,1794.741943 2192.000000,1796.000000 
	C2071.956055,1796.000000 1951.911987,1796.000000 1831.230713,1795.259399 
	C1895.259033,1783.694214 1938.697021,1747.508911 1958.510498,1684.924683 
	C1969.966553,1648.739136 1969.688110,1611.543579 1960.169067,1574.840210 
	C1947.327881,1525.327271 1917.200928,1489.878418 1869.838379,1470.363403 
	C1836.474243,1456.616211 1801.427246,1454.454834 1766.218750,1461.843872 
	C1707.525146,1474.161499 1667.317139,1508.478271 1647.839355,1565.528320 
	C1636.460571,1598.856567 1636.108154,1633.146118 1642.153198,1667.666138 
	C1653.112549,1730.248901 1699.781006,1779.008057 1761.598877,1792.392334 
	C1764.522461,1793.025391 1767.205078,1794.772095 1770.000000,1796.000000 
	C1641.955933,1796.000000 1513.911987,1796.000000 1385.185059,1795.253784 
	C1446.956909,1785.187988 1487.705688,1736.672363 1494.833984,1694.040283 
	C1480.215332,1694.040283 1465.630127,1694.040283 1450.835938,1694.040283 
	C1445.677612,1708.188110 1438.043823,1720.409424 1427.204590,1730.614014 
	C1402.123901,1754.226196 1371.487061,1760.193237 1339.168457,1755.082397 
	C1296.557495,1748.343872 1267.588623,1722.986938 1253.267822,1682.298218 
	C1248.389160,1668.436890 1246.584473,1653.493652 1243.121094,1637.900879 
	C1331.005859,1637.900879 1417.196411,1637.900879 1503.605957,1637.900879 
	C1504.401855,1634.307617 1505.513184,1631.460205 1505.595459,1628.583374 
	C1506.427246,1599.508423 1504.677124,1570.820923 1492.374146,1543.767334 
	C1473.682007,1502.663818 1443.390625,1475.055786 1399.309204,1463.313232 
	C1377.163574,1457.413940 1354.708008,1456.678101 1332.183472,1459.809326 
	C1276.768433,1467.512939 1236.603271,1496.606079 1214.317993,1547.994995 
	C1195.706177,1590.912598 1194.354126,1636.052979 1206.129761,1680.756958 
	C1221.354248,1738.554077 1257.537476,1777.146362 1316.631836,1792.315918 
	C1319.231812,1792.983398 1321.550293,1794.747070 1324.000000,1796.000000 
	C1189.289307,1796.000000 1054.578613,1796.000000 919.227417,1795.259521 
	C957.807373,1789.563965 986.164734,1766.687256 1012.002625,1735.757324 
	C1012.002625,1754.834351 1012.002625,1771.313232 1012.002625,1787.631104 
	C1027.888794,1787.631104 1042.985229,1787.631104 1058.025391,1787.631104 
	C1060.197388,1736.923340 1059.124023,1329.416260 1056.854614,1320.891602 
	C1041.982300,1320.891602 1027.143066,1320.891602 1011.434570,1320.891602 
	C1011.434570,1386.506348 1011.434570,1451.559326 1011.434570,1518.571411 
	C1009.105713,1515.819824 1007.992981,1514.733276 1007.144836,1513.468994 
	C993.174622,1492.645386 974.208618,1478.015015 951.047485,1468.862305 
	C924.210815,1458.257202 896.315552,1456.030640 867.885010,1459.693604 
	C805.550659,1467.724731 763.811890,1502.058105 741.970947,1560.361450 
	C728.066040,1597.479614 727.284607,1636.190552 736.486694,1674.192749 
	C751.364929,1735.636108 788.561829,1776.895386 851.457886,1792.451172 
	C854.416809,1793.182861 857.157654,1794.796753 860.000000,1796.000000 
	C574.124573,1796.000000 288.249084,1796.000000 2.000000,1796.000000 
	C2.000000,1417.956055 2.000000,1039.911987 2.559313,660.974609 
	C3.483620,660.000366 3.848614,659.919434 4.758183,660.477905 
	C7.420521,680.203247 8.865686,699.392517 11.775091,718.357056 
	C23.024147,791.682739 47.630581,860.437561 84.403976,924.781799 
	C118.163788,983.853027 160.532379,1035.969238 211.538666,1081.128296 
	C262.020813,1125.823364 318.303497,1161.206665 380.240326,1187.618652 
	C424.382568,1206.442505 470.202271,1219.963989 517.589600,1227.369507 
	C543.069885,1231.351318 568.863708,1234.212646 594.614380,1235.346802 
	C624.782471,1236.675415 655.124023,1236.730225 685.158813,1232.269775 
	C709.386169,1228.671875 733.732300,1225.448242 757.660217,1220.344849 
	C812.555054,1208.636963 864.482300,1188.637085 913.854187,1161.893921 
	C978.846863,1126.689697 1035.757324,1081.298096 1084.428711,1025.799561 
	C1124.322144,980.310364 1156.788330,929.902039 1181.996826,874.765747 
	C1218.862671,794.131958 1235.984253,709.277527 1237.589966,620.992554 
	C1237.722168,613.730347 1236.409790,606.449036 1236.401489,599.175842 
	C1236.374756,575.564026 1233.773560,552.209473 1230.437012,528.874939 
	C1220.325928,458.162659 1198.194214,391.498627 1164.508057,328.506744 
	C1131.084106,266.005554 1088.105225,211.125076 1035.898193,163.257065 
	C997.694519,128.228653 955.710876,98.601303 910.033447,74.308746 
	C833.703491,33.714275 752.244263,10.513947 665.990234,3.422599 
	C665.926453,2.950310 666.000000,2.000000 666.000000,2.000000 
	C962.044006,2.000000 1258.088013,2.000000 1555.109375,2.477111 
	C1556.086548,2.954223 1555.948364,3.902344 1555.137329,4.097059 
	C1553.326416,4.306385 1552.312988,4.218857 1551.328735,4.350303 
	C1506.993530,10.270690 1469.795776,29.776089 1440.833862,63.896278 
	C1414.300293,95.155540 1400.426514,131.636795 1400.407715,172.734543 
	C1400.270874,471.664520 1400.312134,770.594604 1400.441650,1069.524658 
	C1400.445557,1078.423584 1401.362061,1087.449829 1403.010864,1096.198486 
	C1410.675415,1136.864746 1429.991577,1171.080688 1462.072754,1197.354980 
	C1492.259155,1222.077393 1526.770752,1236.296021 1566.348755,1236.320435 
	C1639.331665,1236.365234 1712.314575,1236.306763 1785.297485,1236.347290 
	C1810.881836,1236.361572 1836.348633,1234.659302 1861.840698,1232.510620 
	C1891.600342,1230.002319 1921.063965,1225.837402 1950.400024,1220.379517 
	C2026.985107,1206.130981 2098.994141,1180.123535 2164.367920,1137.171631 
	C2201.534180,1112.752686 2234.762207,1083.792847 2263.723389,1049.933350 
	C2293.329590,1015.319763 2317.156738,977.128174 2335.925049,935.695984 
	C2361.022705,880.291138 2377.068848,822.258606 2386.186768,762.236450 
	C2390.720947,732.387512 2394.077881,702.414185 2394.781250,672.255127 
	C2395.205078,672.339478 2396.000000,672.000000 2396.000000,672.000000 
M290.847931,1593.888550 
	C273.041290,1642.554321 255.234619,1691.219971 236.579483,1742.204590 
	C202.136673,1648.374023 168.578339,1556.952881 135.313187,1466.330566 
	C118.474060,1466.330566 103.042213,1466.330566 86.562195,1466.330566 
	C127.957016,1574.362793 168.986923,1681.442627 209.739471,1787.798706 
	C228.470459,1787.798706 245.711121,1787.798706 262.742859,1787.798706 
	C303.886719,1680.379272 344.822815,1573.502197 385.975830,1466.058838 
	C369.359344,1466.058838 353.807007,1466.058838 337.816193,1466.058838 
	C322.350311,1508.346924 306.962616,1550.421265 290.847931,1593.888550 
M539.654785,1614.999878 
	C539.654785,1672.525879 539.654785,1730.052002 539.654785,1788.345093 
	C547.817566,1788.345093 555.068787,1788.345093 562.320007,1788.345093 
	C569.868347,1788.345093 577.416687,1788.345093 584.978394,1788.345093 
	C584.978394,1680.158081 584.978394,1573.123413 584.978394,1466.388672 
	C569.466553,1466.388672 554.663574,1466.388672 539.654785,1466.388672 
	C539.654785,1515.747925 539.654785,1564.373901 539.654785,1614.999878 
z"/>
<path fill="#030304" opacity="1.000000" stroke="none" 
	d="
M2394.357178,672.170715 
	C2394.077881,702.414185 2390.720947,732.387512 2386.186768,762.236450 
	C2377.068848,822.258606 2361.022705,880.291138 2335.925049,935.695984 
	C2317.156738,977.128174 2293.329590,1015.319763 2263.723389,1049.933350 
	C2234.762207,1083.792847 2201.534180,1112.752686 2164.367920,1137.171631 
	C2098.994141,1180.123535 2026.985107,1206.130981 1950.400024,1220.379517 
	C1921.063965,1225.837402 1891.600342,1230.002319 1861.840698,1232.510620 
	C1836.348633,1234.659302 1810.881836,1236.361572 1785.297485,1236.347290 
	C1712.314575,1236.306763 1639.331665,1236.365234 1566.348755,1236.320435 
	C1526.770752,1236.296021 1492.259155,1222.077393 1462.072754,1197.354980 
	C1429.991577,1171.080688 1410.675415,1136.864746 1403.010864,1096.198486 
	C1401.362061,1087.449829 1400.445557,1078.423584 1400.441650,1069.524658 
	C1400.312134,770.594604 1400.270874,471.664520 1400.407715,172.734543 
	C1400.426514,131.636795 1414.300293,95.155540 1440.833862,63.896278 
	C1469.795776,29.776089 1506.993530,10.270690 1551.328735,4.350303 
	C1552.312988,4.218857 1553.326416,4.306385 1556.074463,4.183718 
	C1632.617065,4.049141 1707.411377,4.029372 1782.205688,3.984463 
	C1788.848999,3.980475 1795.492432,3.812833 1803.024170,3.956386 
	C1822.430298,5.348166 1840.949707,6.480952 1859.465698,7.666736 
	C1889.915039,9.616735 1920.035156,14.031746 1949.985962,19.744864 
	C2010.980469,31.379599 2069.542236,49.991035 2124.473877,79.451653 
	C2177.200684,107.729752 2223.384277,144.108612 2262.426025,189.447159 
	C2300.350830,233.488953 2328.174805,283.423950 2348.733154,337.641571 
	C2365.381348,381.547272 2377.069824,426.680939 2384.490967,473.027618 
	C2389.842773,506.451630 2393.777100,539.966125 2394.209961,574.763428 
	C2394.037842,583.518738 2393.910889,591.346497 2394.097656,599.166809 
	C2394.136475,600.792114 2395.335693,602.389648 2396.000000,604.000000 
	C2396.000000,616.042297 2396.000000,628.084595 2395.301758,641.559204 
	C2394.521484,652.717896 2394.439209,662.444336 2394.357178,672.170715 
M2012.232056,805.234314 
	C2026.832886,791.651733 2041.678833,778.321289 2055.973145,764.423645 
	C2074.365967,746.541321 2092.400635,728.287048 2110.429932,710.035522 
	C2123.786621,696.514343 2135.782471,681.848145 2145.024414,665.172241 
	C2157.202637,643.198914 2162.042480,619.929871 2156.122803,595.042236 
	C2151.954346,577.516357 2143.785645,561.588928 2131.711182,548.716370 
	C2108.299072,523.756470 2084.309570,499.218079 2059.107666,476.086456 
	C2028.052490,447.582153 1995.958130,420.158813 1963.513916,393.230774 
	C1917.424072,354.977112 1869.327148,319.364777 1816.698853,290.449097 
	C1788.724243,275.078888 1759.959106,261.645325 1727.625000,257.266388 
	C1692.727173,252.540268 1668.737305,269.530823 1659.663940,299.783722 
	C1654.456177,317.148285 1654.051514,335.047546 1652.404907,352.815155 
	C1651.119751,366.680359 1650.599976,380.614655 1649.526245,394.501678 
	C1647.892700,415.627747 1645.839600,436.723572 1644.405273,457.862152 
	C1643.169434,476.071838 1642.502563,494.321198 1641.667969,512.556824 
	C1640.515259,537.744202 1639.430420,562.934570 1638.347778,588.125061 
	C1638.219116,591.118408 1638.285400,594.120117 1638.265259,597.117981 
	C1638.102295,621.422607 1637.367310,645.740356 1637.923950,670.028503 
	C1638.607910,699.880005 1640.285034,729.710815 1641.701660,759.542542 
	C1642.425415,774.784546 1643.207031,790.035767 1644.514282,805.235352 
	C1646.669678,830.296936 1649.227051,855.324463 1651.702026,880.357727 
	C1653.493896,898.482422 1654.739624,916.707275 1660.008423,934.290588 
	C1670.796509,970.292908 1696.953003,988.618958 1736.619995,982.567322 
	C1759.291138,979.108765 1780.182495,970.892334 1800.468384,960.917542 
	C1844.252563,939.388428 1884.022339,911.515991 1921.988525,881.190918 
	C1952.330688,856.955322 1981.520142,831.276733 2012.232056,805.234314 
z"/>
<path fill="#040405" opacity="1.000000" stroke="none" 
	d="
M666.054016,3.894887 
	C752.244263,10.513947 833.703491,33.714275 910.033447,74.308746 
	C955.710876,98.601303 997.694519,128.228653 1035.898193,163.257065 
	C1088.105225,211.125076 1131.084106,266.005554 1164.508057,328.506744 
	C1198.194214,391.498627 1220.325928,458.162659 1230.437012,528.874939 
	C1233.773560,552.209473 1236.374756,575.564026 1236.401489,599.175842 
	C1236.409790,606.449036 1237.722168,613.730347 1237.589966,620.992554 
	C1235.984253,709.277527 1218.862671,794.131958 1181.996826,874.765747 
	C1156.788330,929.902039 1124.322144,980.310364 1084.428711,1025.799561 
	C1035.757324,1081.298096 978.846863,1126.689697 913.854187,1161.893921 
	C864.482300,1188.637085 812.555054,1208.636963 757.660217,1220.344849 
	C733.732300,1225.448242 709.386169,1228.671875 685.158813,1232.269775 
	C655.124023,1236.730225 624.782471,1236.675415 594.614380,1235.346802 
	C568.863708,1234.212646 543.069885,1231.351318 517.589600,1227.369507 
	C470.202271,1219.963989 424.382568,1206.442505 380.240326,1187.618652 
	C318.303497,1161.206665 262.020813,1125.823364 211.538666,1081.128296 
	C160.532379,1035.969238 118.163788,983.853027 84.403976,924.781799 
	C47.630581,860.437561 23.024147,791.682739 11.775091,718.357056 
	C8.865686,699.392517 7.420521,680.203247 4.915771,659.603271 
	C4.549561,654.253296 4.875063,650.385315 4.476362,646.593506 
	C4.238759,644.333862 2.863704,642.193787 1.999999,640.000000 
	C2.000000,626.624695 2.000000,613.249451 2.840300,598.684387 
	C3.852874,591.045288 4.025148,584.595886 4.749426,577.514526 
	C5.561836,572.572021 5.703261,568.250488 6.101342,563.952759 
	C9.499662,527.264465 15.805596,491.122467 25.531855,455.537567 
	C43.026291,391.531738 70.383041,332.039398 106.976807,276.816986 
	C136.699860,231.962891 172.067688,191.833740 212.404922,156.305893 
	C273.444336,102.544151 342.556946,62.323166 419.492004,35.737999 
	C470.200470,18.215542 522.437073,8.037184 576.742920,3.858144 
	C583.049988,3.062049 588.973999,6.246168 594.000000,2.000000 
	C611.375122,2.000000 628.750244,2.000000 647.412598,2.770951 
	C654.484497,3.659564 660.269287,3.777225 666.054016,3.894887 
M944.175903,955.248535 
	C975.109924,927.413330 987.818542,892.182068 987.757935,851.142700 
	C987.528564,695.834351 987.697693,540.525513 987.582825,385.216888 
	C987.576233,376.291962 986.982361,367.274017 985.625977,358.458710 
	C976.422974,298.648865 925.508484,252.600479 863.071594,252.458054 
	C701.431458,252.089386 539.789917,252.305664 378.148987,252.424500 
	C370.563354,252.430084 362.839233,253.061783 355.415527,254.566132 
	C293.004669,267.213196 253.477661,320.720581 253.575134,378.929688 
	C253.841354,537.903992 253.836761,696.879333 253.544922,855.853516 
	C253.473679,894.662598 266.523834,927.358765 295.125732,953.549927 
	C317.263885,973.822205 343.534912,985.449280 373.603790,985.509216 
	C538.243652,985.837524 702.884521,985.667480 867.525085,985.651855 
	C870.514038,985.651550 873.541382,985.712036 876.485840,985.290283 
	C901.360474,981.727722 923.826477,972.605103 944.175903,955.248535 
z"/>
<path fill="#FEFEFE" opacity="1.000000" stroke="none" 
	d="
M575.864136,3.736916 
	C522.437073,8.037184 470.200470,18.215542 419.492004,35.737999 
	C342.556946,62.323166 273.444336,102.544151 212.404922,156.305893 
	C172.067688,191.833740 136.699860,231.962891 106.976807,276.816986 
	C70.383041,332.039398 43.026291,391.531738 25.531855,455.537567 
	C15.805596,491.122467 9.499662,527.264465 6.101342,563.952759 
	C5.703261,568.250488 5.561836,572.572021 4.205720,577.393188 
	C2.740007,577.935852 2.370004,577.967957 2.000000,578.000000 
	C2.000000,386.146118 2.000000,194.292267 2.000000,2.000000 
	C192.708237,2.000000 383.416809,2.000000 575.002563,2.432186 
	C575.879822,2.864372 575.864136,3.736916 575.864136,3.736916 
z"/>
<path fill="#FEFEFE" opacity="1.000000" stroke="none" 
	d="
M2394.366211,573.833374 
	C2393.777100,539.966125 2389.842773,506.451630 2384.490967,473.027618 
	C2377.069824,426.680939 2365.381348,381.547272 2348.733154,337.641571 
	C2328.174805,283.423950 2300.350830,233.488953 2262.426025,189.447159 
	C2223.384277,144.108612 2177.200684,107.729752 2124.473877,79.451653 
	C2069.542236,49.991035 2010.980469,31.379599 1949.985962,19.744864 
	C1920.035156,14.031746 1889.915039,9.616735 1859.465698,7.666736 
	C1840.949707,6.480952 1822.430298,5.348166 1803.024902,3.523342 
	C1802.137451,2.855111 1802.000000,2.000000 1802.000000,2.000000 
	C1999.851318,2.000000 2197.702637,2.000000 2396.000000,2.000000 
	C2396.000000,192.041550 2396.000000,382.083466 2395.604980,572.888794 
	C2395.210205,573.652161 2394.366211,573.833374 2394.366211,573.833374 
z"/>
<path fill="#050506" opacity="1.000000" stroke="none" 
	d="
M860.937317,1796.000000 
	C857.157654,1794.796753 854.416809,1793.182861 851.457886,1792.451172 
	C788.561829,1776.895386 751.364929,1735.636108 736.486694,1674.192749 
	C727.284607,1636.190552 728.066040,1597.479614 741.970947,1560.361450 
	C763.811890,1502.058105 805.550659,1467.724731 867.885010,1459.693604 
	C896.315552,1456.030640 924.210815,1458.257202 951.047485,1468.862305 
	C974.208618,1478.015015 993.174622,1492.645386 1007.144836,1513.468994 
	C1007.992981,1514.733276 1009.105713,1515.819824 1011.434570,1518.571411 
	C1011.434570,1451.559326 1011.434570,1386.506348 1011.434570,1320.891602 
	C1027.143066,1320.891602 1041.982300,1320.891602 1056.854614,1320.891602 
	C1059.124023,1329.416260 1060.197388,1736.923340 1058.025391,1787.631104 
	C1042.985229,1787.631104 1027.888794,1787.631104 1012.002625,1787.631104 
	C1012.002625,1771.313232 1012.002625,1754.834351 1012.002625,1735.757324 
	C986.164734,1766.687256 957.807373,1789.563965 918.293457,1795.259521 
	C899.291565,1796.000000 880.583069,1796.000000 860.937317,1796.000000 
M992.479248,1556.636719 
	C985.218628,1542.528076 975.370544,1530.538452 962.671631,1521.029907 
	C938.414856,1502.867310 911.096008,1496.507690 881.114929,1499.602783 
	C838.597229,1503.992065 808.365723,1526.058105 790.978455,1564.333496 
	C774.081299,1601.529785 773.122620,1640.642090 786.452881,1679.003052 
	C804.638123,1731.335693 849.784546,1761.083740 906.944275,1755.283691 
	C950.637024,1750.850342 981.145386,1726.455688 998.224854,1686.108276 
	C1008.076050,1662.836792 1010.916199,1638.421875 1008.597290,1613.055298 
	C1006.813782,1593.545410 1002.257996,1575.190308 992.479248,1556.636719 
z"/>
<path fill="#060607" opacity="1.000000" stroke="none" 
	d="
M1324.937256,1796.000000 
	C1321.550293,1794.747070 1319.231812,1792.983398 1316.631836,1792.315918 
	C1257.537476,1777.146362 1221.354248,1738.554077 1206.129761,1680.756958 
	C1194.354126,1636.052979 1195.706177,1590.912598 1214.317993,1547.994995 
	C1236.603271,1496.606079 1276.768433,1467.512939 1332.183472,1459.809326 
	C1354.708008,1456.678101 1377.163574,1457.413940 1399.309204,1463.313232 
	C1443.390625,1475.055786 1473.682007,1502.663818 1492.374146,1543.767334 
	C1504.677124,1570.820923 1506.427246,1599.508423 1505.595459,1628.583374 
	C1505.513184,1631.460205 1504.401855,1634.307617 1503.605957,1637.900879 
	C1417.196411,1637.900879 1331.005859,1637.900879 1243.121094,1637.900879 
	C1246.584473,1653.493652 1248.389160,1668.436890 1253.267822,1682.298218 
	C1267.588623,1722.986938 1296.557495,1748.343872 1339.168457,1755.082397 
	C1371.487061,1760.193237 1402.123901,1754.226196 1427.204590,1730.614014 
	C1438.043823,1720.409424 1445.677612,1708.188110 1450.835938,1694.040283 
	C1465.630127,1694.040283 1480.215332,1694.040283 1494.833984,1694.040283 
	C1487.705688,1736.672363 1446.956909,1785.187988 1384.251099,1795.253784 
	C1364.624878,1796.000000 1345.249756,1796.000000 1324.937256,1796.000000 
M1270.211670,1535.277832 
	C1255.169067,1553.012085 1246.516846,1573.219604 1245.656006,1597.157227 
	C1317.503540,1597.157227 1388.580933,1597.157227 1460.341309,1597.157227 
	C1459.549561,1590.701660 1459.223145,1584.745728 1458.004395,1578.978516 
	C1456.637573,1572.510864 1454.956787,1566.021606 1452.562012,1559.873047 
	C1435.504395,1516.079346 1389.601440,1492.994263 1340.624146,1499.012451 
	C1313.339722,1502.364990 1289.705444,1513.376099 1270.211670,1535.277832 
z"/>
<path fill="#060607" opacity="1.000000" stroke="none" 
	d="
M1770.937256,1796.000000 
	C1767.205078,1794.772095 1764.522461,1793.025391 1761.598877,1792.392334 
	C1699.781006,1779.008057 1653.112549,1730.248901 1642.153198,1667.666138 
	C1636.108154,1633.146118 1636.460571,1598.856567 1647.839355,1565.528320 
	C1667.317139,1508.478271 1707.525146,1474.161499 1766.218750,1461.843872 
	C1801.427246,1454.454834 1836.474243,1456.616211 1869.838379,1470.363403 
	C1917.200928,1489.878418 1947.327881,1525.327271 1960.169067,1574.840210 
	C1969.688110,1611.543579 1969.966553,1648.739136 1958.510498,1684.924683 
	C1938.697021,1747.508911 1895.259033,1783.694214 1830.296875,1795.259399 
	C1810.624878,1796.000000 1791.249756,1796.000000 1770.937256,1796.000000 
M1723.786377,1528.760498 
	C1710.011597,1541.792603 1699.939819,1557.187622 1694.106812,1575.285278 
	C1684.188965,1606.057007 1684.010864,1637.149780 1691.016846,1668.485474 
	C1695.624390,1689.093384 1705.421875,1707.048950 1719.865845,1722.230835 
	C1743.216309,1746.774536 1772.428101,1757.141724 1805.982300,1756.335205 
	C1853.692627,1755.188232 1893.673218,1726.979858 1910.189453,1681.904175 
	C1919.841675,1655.561646 1919.674805,1628.406250 1917.223145,1601.228394 
	C1915.792358,1585.366455 1910.855225,1570.070923 1903.113037,1555.903931 
	C1866.094727,1488.166260 1774.795898,1481.579712 1723.786377,1528.760498 
z"/>
<path fill="#060607" opacity="1.000000" stroke="none" 
	d="
M2192.937256,1796.000000 
	C2188.871094,1794.741943 2185.841309,1793.070190 2182.597168,1792.291748 
	C2157.980469,1786.383179 2135.190674,1776.809814 2116.601074,1759.083374 
	C2099.626709,1742.897217 2090.570557,1722.471802 2086.038330,1699.802856 
	C2085.328369,1696.251343 2084.873779,1692.649048 2084.184814,1688.343140 
	C2100.348633,1688.343140 2116.131836,1688.343140 2131.631348,1688.343140 
	C2134.849609,1696.858521 2137.200928,1705.583618 2141.290771,1713.398926 
	C2150.862061,1731.688477 2166.622559,1743.260986 2185.867432,1749.553589 
	C2210.378174,1757.568115 2235.444580,1758.358765 2260.419922,1751.543579 
	C2271.812500,1748.434937 2281.801758,1742.443237 2289.851074,1733.584229 
	C2301.585449,1720.669434 2306.066895,1705.751221 2302.296143,1688.529297 
	C2300.172119,1678.830200 2294.744141,1671.849243 2285.926514,1667.196167 
	C2272.199707,1659.952759 2257.191895,1656.990845 2242.265137,1653.860962 
	C2222.479736,1649.712646 2202.472656,1646.556763 2182.801758,1641.946777 
	C2164.921631,1637.756470 2148.037842,1630.658569 2133.154785,1619.556641 
	C2109.520020,1601.926636 2100.372314,1577.755981 2101.752441,1548.982666 
	C2103.865234,1504.929199 2135.348145,1475.030029 2172.209473,1464.407715 
	C2209.403809,1453.689209 2246.478760,1455.829102 2282.406982,1470.576660 
	C2313.922363,1483.512817 2331.660645,1507.798706 2338.067871,1540.812256 
	C2339.069092,1545.971313 2339.631348,1551.215576 2340.495605,1557.093994 
	C2324.967773,1557.093994 2310.105225,1557.093994 2294.143311,1557.093994 
	C2293.578613,1554.905029 2292.656738,1552.207275 2292.203613,1549.432983 
	C2289.022705,1529.966064 2279.262939,1515.334473 2260.678711,1507.728760 
	C2231.065430,1495.609131 2201.443604,1494.025757 2172.462646,1509.694214 
	C2156.701904,1518.214966 2147.326904,1531.098389 2147.687500,1549.765015 
	C2148.049805,1568.540283 2157.284180,1581.736450 2173.512207,1590.433350 
	C2185.072021,1596.628418 2197.672119,1599.368164 2210.427734,1601.875244 
	C2236.115479,1606.924561 2261.818359,1611.982422 2287.306396,1617.930176 
	C2300.985596,1621.122437 2313.330322,1627.988770 2324.297119,1636.892700 
	C2340.812256,1650.301392 2348.680176,1668.238403 2349.546143,1689.061157 
	C2350.589844,1714.162964 2343.976562,1737.093628 2327.123047,1756.319946 
	C2311.041504,1774.665527 2290.659424,1785.971436 2267.139648,1791.840942 
	C2262.965088,1792.882568 2258.716064,1793.626343 2254.250732,1795.253906 
	C2233.958252,1796.000000 2213.916260,1796.000000 2192.937256,1796.000000 
z"/>
<path fill="#ABABAB" opacity="1.000000" stroke="none" 
	d="
M1801.062744,2.000000 
	C1802.000000,2.000000 1802.137451,2.855111 1802.136597,3.288155 
	C1795.492432,3.812833 1788.848999,3.980475 1782.205688,3.984463 
	C1707.411377,4.029372 1632.617065,4.049141 1556.885498,3.989003 
	C1555.948364,3.902344 1556.086548,2.954223 1556.043213,2.477111 
	C1637.375122,2.000000 1718.750244,2.000000 1801.062744,2.000000 
z"/>
<path fill="#A8A8A8" opacity="1.000000" stroke="none" 
	d="
M2394.781250,672.255127 
	C2394.439209,662.444336 2394.521484,652.717896 2395.301758,642.495728 
	C2396.000000,651.378479 2396.000000,660.757019 2396.000000,671.067749 
	C2396.000000,672.000000 2395.205078,672.339478 2394.781250,672.255127 
z"/>
<path fill="#ABABAB" opacity="1.000000" stroke="none" 
	d="
M2394.209961,574.763428 
	C2394.366211,573.833374 2395.210205,573.652161 2395.604980,573.826050 
	C2396.000000,583.378479 2396.000000,592.757019 2396.000000,603.067749 
	C2395.335693,602.389648 2394.136475,600.792114 2394.097656,599.166809 
	C2393.910889,591.346497 2394.037842,583.518738 2394.209961,574.763428 
z"/>
<path fill="#A7A7A7" opacity="1.000000" stroke="none" 
	d="
M1.999999,640.908203 
	C2.863704,642.193787 4.238759,644.333862 4.476362,646.593506 
	C4.875063,650.385315 4.549561,654.253296 4.371196,658.963867 
	C3.848614,659.919434 3.483620,660.000366 2.559313,660.040649 
	C2.000000,653.938782 2.000000,647.877625 1.999999,640.908203 
z"/>
<path fill="#ABABAB" opacity="1.000000" stroke="none" 
	d="
M2.000000,578.908203 
	C2.370004,577.967957 2.740007,577.935852 3.653717,578.025146 
	C4.025148,584.595886 3.852874,591.045288 2.840300,597.747314 
	C2.000000,591.938782 2.000000,585.877625 2.000000,578.908203 
z"/>
<path fill="#ADADAD" opacity="1.000000" stroke="none" 
	d="
M665.990234,3.422599 
	C660.269287,3.777225 654.484497,3.659564 648.349854,2.770951 
	C653.400024,2.000000 658.800049,2.000000 665.100037,2.000000 
	C666.000000,2.000000 665.926453,2.950310 665.990234,3.422599 
z"/>
<path fill="#A7A7A7" opacity="1.000000" stroke="none" 
	d="
M576.742920,3.858144 
	C575.864136,3.736916 575.879822,2.864372 575.939941,2.432186 
	C581.400024,2.000000 586.800049,2.000000 593.100037,2.000000 
	C588.973999,6.246168 583.049988,3.062049 576.742920,3.858144 
z"/>
<path fill="#060607" opacity="1.000000" stroke="none" 
	d="
M291.211426,1593.192139 
	C306.962616,1550.421265 322.350311,1508.346924 337.816193,1466.058838 
	C353.807007,1466.058838 369.359344,1466.058838 385.975830,1466.058838 
	C344.822815,1573.502197 303.886719,1680.379272 262.742859,1787.798706 
	C245.711121,1787.798706 228.470459,1787.798706 209.739471,1787.798706 
	C168.986923,1681.442627 127.957016,1574.362793 86.562195,1466.330566 
	C103.042213,1466.330566 118.474060,1466.330566 135.313187,1466.330566 
	C168.578339,1556.952881 202.136673,1648.374023 236.579483,1742.204590 
	C255.234619,1691.219971 273.041290,1642.554321 291.211426,1593.192139 
z"/>
<path fill="#060607" opacity="1.000000" stroke="none" 
	d="
M539.654785,1613.999756 
	C539.654785,1564.373901 539.654785,1515.747925 539.654785,1466.388672 
	C554.663574,1466.388672 569.466553,1466.388672 584.978394,1466.388672 
	C584.978394,1573.123413 584.978394,1680.158081 584.978394,1788.345093 
	C577.416687,1788.345093 569.868347,1788.345093 562.320007,1788.345093 
	C555.068787,1788.345093 547.817566,1788.345093 539.654785,1788.345093 
	C539.654785,1730.052002 539.654785,1672.525879 539.654785,1613.999756 
z"/>
<path fill="#FEFEFE" opacity="1.000000" stroke="none" 
	d="
M2011.726685,805.736450 
	C1981.520142,831.276733 1952.330688,856.955322 1921.988525,881.190918 
	C1884.022339,911.515991 1844.252563,939.388428 1800.468384,960.917542 
	C1780.182495,970.892334 1759.291138,979.108765 1736.619995,982.567322 
	C1696.953003,988.618958 1670.796509,970.292908 1660.008423,934.290588 
	C1654.739624,916.707275 1653.493896,898.482422 1651.702026,880.357727 
	C1649.227051,855.324463 1646.669678,830.296936 1644.514282,805.235352 
	C1643.207031,790.035767 1642.425415,774.784546 1641.701660,759.542542 
	C1640.285034,729.710815 1638.607910,699.880005 1637.923950,670.028503 
	C1637.367310,645.740356 1638.102295,621.422607 1638.265259,597.117981 
	C1638.285400,594.120117 1638.219116,591.118408 1638.347778,588.125061 
	C1639.430420,562.934570 1640.515259,537.744202 1641.667969,512.556824 
	C1642.502563,494.321198 1643.169434,476.071838 1644.405273,457.862152 
	C1645.839600,436.723572 1647.892700,415.627747 1649.526245,394.501678 
	C1650.599976,380.614655 1651.119751,366.680359 1652.404907,352.815155 
	C1654.051514,335.047546 1654.456177,317.148285 1659.663940,299.783722 
	C1668.737305,269.530823 1692.727173,252.540268 1727.625000,257.266388 
	C1759.959106,261.645325 1788.724243,275.078888 1816.698853,290.449097 
	C1869.327148,319.364777 1917.424072,354.977112 1963.513916,393.230774 
	C1995.958130,420.158813 2028.052490,447.582153 2059.107666,476.086456 
	C2084.309570,499.218079 2108.299072,523.756470 2131.711182,548.716370 
	C2143.785645,561.588928 2151.954346,577.516357 2156.122803,595.042236 
	C2162.042480,619.929871 2157.202637,643.198914 2145.024414,665.172241 
	C2135.782471,681.848145 2123.786621,696.514343 2110.429932,710.035522 
	C2092.400635,728.287048 2074.365967,746.541321 2055.973145,764.423645 
	C2041.678833,778.321289 2026.832886,791.651733 2011.726685,805.736450 
z"/>
<path fill="#FFFFFF" opacity="1.000000" stroke="none" 
	d="
M943.614746,955.685913 
	C923.826477,972.605103 901.360474,981.727722 876.485840,985.290283 
	C873.541382,985.712036 870.514038,985.651550 867.525085,985.651855 
	C702.884521,985.667480 538.243652,985.837524 373.603790,985.509216 
	C343.534912,985.449280 317.263885,973.822205 295.125732,953.549927 
	C266.523834,927.358765 253.473679,894.662598 253.544922,855.853516 
	C253.836761,696.879333 253.841354,537.903992 253.575134,378.929688 
	C253.477661,320.720581 293.004669,267.213196 355.415527,254.566132 
	C362.839233,253.061783 370.563354,252.430084 378.148987,252.424500 
	C539.789917,252.305664 701.431458,252.089386 863.071594,252.458054 
	C925.508484,252.600479 976.422974,298.648865 985.625977,358.458710 
	C986.982361,367.274017 987.576233,376.291962 987.582825,385.216888 
	C987.697693,540.525513 987.528564,695.834351 987.757935,851.142700 
	C987.818542,892.182068 975.109924,927.413330 943.614746,955.685913 
z"/>
<path fill="#FEFEFE" opacity="1.000000" stroke="none" 
	d="
M992.927795,1557.232422 
	C1002.257996,1575.190308 1006.813782,1593.545410 1008.597290,1613.055298 
	C1010.916199,1638.421875 1008.076050,1662.836792 998.224854,1686.108276 
	C981.145386,1726.455688 950.637024,1750.850342 906.944275,1755.283691 
	C849.784546,1761.083740 804.638123,1731.335693 786.452881,1679.003052 
	C773.122620,1640.642090 774.081299,1601.529785 790.978455,1564.333496 
	C808.365723,1526.058105 838.597229,1503.992065 881.114929,1499.602783 
	C911.096008,1496.507690 938.414856,1502.867310 962.671631,1521.029907 
	C975.370544,1530.538452 985.218628,1542.528076 992.927795,1557.232422 
z"/>
<path fill="#FCFCFC" opacity="1.000000" stroke="none" 
	d="
M1270.710571,1534.772217 
	C1289.705444,1513.376099 1313.339722,1502.364990 1340.624146,1499.012451 
	C1389.601440,1492.994263 1435.504395,1516.079346 1452.562012,1559.873047 
	C1454.956787,1566.021606 1456.637573,1572.510864 1458.004395,1578.978516 
	C1459.223145,1584.745728 1459.549561,1590.701660 1460.341309,1597.157227 
	C1388.580933,1597.157227 1317.503540,1597.157227 1245.656006,1597.157227 
	C1246.516846,1573.219604 1255.169067,1553.012085 1270.710571,1534.772217 
z"/>
<path fill="#FEFEFE" opacity="1.000000" stroke="none" 
	d="
M1724.289429,1528.260254 
	C1774.795898,1481.579712 1866.094727,1488.166260 1903.113037,1555.903931 
	C1910.855225,1570.070923 1915.792358,1585.366455 1917.223145,1601.228394 
	C1919.674805,1628.406250 1919.841675,1655.561646 1910.189453,1681.904175 
	C1893.673218,1726.979858 1853.692627,1755.188232 1805.982300,1756.335205 
	C1772.428101,1757.141724 1743.216309,1746.774536 1719.865845,1722.230835 
	C1705.421875,1707.048950 1695.624390,1689.093384 1691.016846,1668.485474 
	C1684.010864,1637.149780 1684.188965,1606.057007 1694.106812,1575.285278 
	C1699.939819,1557.187622 1710.011597,1541.792603 1724.289429,1528.260254 
z"/>
</svg>