<?xml version="1.0" encoding="UTF-8"?>
<!-- Generator: visioncortex VTracer 0.6.12 -->
<svg version="1.1" xmlns="http://www.w3.org/2000/svg" width="1200" height="630">
<path d="M0 0 C1.938 0.312 1.938 0.312 4 1 C5.187 4.562 5.177 7.815 5.197 11.525 C5.203 12.29 5.209 13.055 5.216 13.844 C5.232 16.392 5.237 18.94 5.238 21.488 C5.239 22.373 5.24 23.257 5.241 24.169 C5.229 44.315 3.92 64.316 2.397 84.396 C2.039 89.162 1.699 93.929 1.357 98.696 C0.822 106.139 0.28 113.581 -0.269 121.023 C-1.115 132.509 -1.92 143.998 -2.689 155.489 C-2.868 158.144 -3.052 160.799 -3.238 163.454 C-3.775 171.309 -4.175 179.121 -4 187 C-0.498 184.851 3.003 182.7 6.504 180.549 C7.69 179.82 8.876 179.092 10.062 178.364 C12.933 176.602 15.802 174.836 18.667 173.062 C20.841 171.717 23.02 170.38 25.205 169.051 C26.183 168.448 27.16 167.844 28.168 167.223 C29.031 166.696 29.893 166.168 30.782 165.625 C34.239 163.092 35.72 161.178 36.72 156.973 C36.882 155.8 37.044 154.627 37.211 153.418 C37.304 152.776 37.397 152.133 37.493 151.472 C37.692 150.094 37.887 148.716 38.077 147.337 C38.582 143.698 39.132 140.066 39.684 136.434 C39.793 135.708 39.903 134.983 40.016 134.236 C45.194 100.48 55.904 52.944 84.668 30.961 C92.466 25.733 99.057 23.125 108.547 24.406 C115.288 26.038 119.801 30.157 123.684 35.754 C132.264 50.394 132.437 70.863 128.5 87.062 C121.869 107.726 108.737 125.336 92 139 C90.991 139.847 89.981 140.694 88.941 141.566 C78.166 150.487 66.633 158.251 55 166 C52 168 52 168 51.434 170.789 C51.344 171.999 51.253 173.209 51.161 174.456 C51.107 175.136 51.053 175.816 50.998 176.517 C50.819 178.836 50.663 181.156 50.508 183.477 C50.386 185.159 50.263 186.842 50.14 188.524 C48.43 212.5 47.289 236.518 46.071 260.523 C45.677 268.264 45.277 276.004 44.877 283.744 C44.509 290.864 44.144 297.984 43.782 305.104 C43.622 308.211 43.457 311.318 43.29 314.425 C43.102 317.929 42.939 321.432 42.802 324.939 C42.737 326.379 42.671 327.82 42.606 329.26 C42.56 330.46 42.513 331.66 42.466 332.896 C41.809 337.274 40.094 339.906 37 343 C31.782 344.577 28.757 343.47 24 341 C22 339 22 339 21.756 336.268 C21.857 325.085 22.568 313.979 23.391 302.828 C23.538 300.778 23.686 298.728 23.833 296.677 C24.142 292.38 24.455 288.084 24.771 283.788 C25.165 278.423 25.551 273.057 25.934 267.692 C27.619 244.129 29.49 220.597 31.768 197.084 C31.81 196.656 31.81 196.656 32.019 194.488 C32.173 192.901 32.328 191.314 32.486 189.726 C32.804 186.458 33 183.289 33 180 C29.053 182.311 25.106 184.622 21.159 186.934 C19.821 187.717 18.483 188.501 17.145 189.284 C15.203 190.421 13.262 191.558 11.32 192.695 C11.029 192.866 11.029 192.866 9.554 193.728 C8.367 194.425 7.186 195.133 6.011 195.852 C4 197 4 197 1.392 198.173 C-5.372 201.483 -5.372 201.483 -7.064 205.569 C-7.657 208.816 -7.93 211.966 -8.113 215.262 C-8.219 216.469 -8.324 217.676 -8.433 218.919 C-8.71 222.169 -8.947 225.419 -9.169 228.673 C-9.409 232.044 -9.706 235.411 -10.002 238.778 C-10.119 240.125 -10.237 241.472 -10.355 242.818 C-10.384 243.15 -10.384 243.15 -10.53 244.829 C-10.703 246.833 -10.869 248.837 -11.034 250.841 C-11.894 261.216 -13.032 271.515 -14.562 281.812 C-14.665 282.504 -14.767 283.195 -14.872 283.907 C-23.092 338.803 -23.092 338.803 -44.898 355.449 C-50.762 358.975 -57.375 358.914 -64 358 C-73.34 355.027 -78.571 344.937 -82.846 336.789 C-93.454 315.783 -98.176 291.707 -91.258 268.746 C-83.259 244.925 -66.803 226.627 -46.062 212.812 C-45.295 212.294 -44.527 211.776 -43.736 211.241 C-40.277 208.954 -36.956 206.882 -33.098 205.344 C-29.407 203.717 -26.45 202.225 -24 199 C-22.78 195.55 -22.35 192.057 -21.891 188.438 C-21.735 187.349 -21.58 186.26 -21.419 185.139 C-19.378 170.346 -17.896 155.477 -16.375 140.624 C-15.69 133.956 -14.987 127.29 -14.287 120.623 C-14.111 118.954 -13.936 117.285 -13.761 115.616 C-12.086 99.623 -10.264 83.65 -8.381 67.68 C-7.106 56.854 -5.874 46.029 -4.812 35.18 C-4.72 34.239 -4.628 33.298 -4.534 32.329 C-4.108 27.949 -3.692 23.568 -3.292 19.185 C-3.148 17.658 -3.004 16.132 -2.859 14.605 C-2.74 13.297 -2.622 11.989 -2.499 10.641 C-1.986 6.898 -1.125 3.597 0 0 Z M84 44 C76.108 55.068 71.356 67.196 67 80 C66.72 80.816 66.441 81.632 66.152 82.473 C58.793 104.337 55.503 127.139 53 150 C76.148 138.73 102.271 113.422 111 89 C116.169 73.749 118.063 55.285 112 40 C110.211 36.401 108.401 34.267 105 32 C96.367 30.52 88.964 37.863 84 44 Z M-51 231 C-51.36 231.288 -51.36 231.288 -53.184 232.746 C-67.98 245.081 -79.573 263.843 -81.812 283.188 C-81.899 284.791 -81.961 286.395 -82 288 C-82.05 288.896 -82.101 289.792 -82.152 290.715 C-82.76 308.837 -77.048 331.924 -65.277 346.07 C-63.578 347.736 -62.132 348.949 -60 350 C-55.482 349.812 -53.326 347.54 -50.375 344.375 C-44.413 337.517 -42.07 329.574 -40.062 320.875 C-39.806 319.773 -39.549 318.671 -39.285 317.535 C-34.021 294.303 -31.032 270.628 -27.688 247.062 C-27.504 245.78 -27.321 244.497 -27.133 243.176 C-26.608 239.484 -26.09 235.791 -25.574 232.098 C-25.415 230.982 -25.256 229.867 -25.092 228.717 C-24.362 223.425 -23.808 218.343 -24 213 C-31.572 213 -45.37 226.265 -51 231 Z " fill="#000000" transform="translate(118,140)"/>
<path d="M0 0 C-0.957 2.73 -1.916 5.459 -2.875 8.188 C-3.144 8.956 -3.414 9.725 -3.691 10.518 C-5.051 14.38 -6.437 18.214 -8 22 C-12.868 21.398 -17.08 19.906 -21.562 18 C-32.429 13.406 -44.751 11.766 -56.125 15.75 C-69.005 21.298 -75.547 30.482 -80.594 43.133 C-88.22 63.427 -86.615 89.432 -78.684 109.297 C-73.977 119.609 -68.029 125.643 -57.613 130.09 C-43.665 134.948 -28.811 131.504 -15 128 C-13.515 127.67 -13.515 127.67 -6 126 C-6 133.59 -6 141.18 -6 149 C-18.905 154.736 -29.1 156.276 -43.062 156.375 C-43.648 156.382 -43.648 156.382 -46.611 156.417 C-63.502 156.327 -78.096 151.76 -90.398 139.883 C-110.13 118.018 -112.195 89.808 -111.216 61.647 C-110.477 49.163 -107.642 37.198 -102 26 C-101.621 25.218 -101.242 24.435 -100.852 23.629 C-93.436 9.27 -81.94 -0.948 -67 -7 C-45.742 -13.752 -19.078 -12.631 0 0 Z " fill="#000000" transform="translate(877,185)"/>
<path d="M0 0 C-0.575 5.333 -1.832 9.901 -3.812 14.875 C-4.061 15.55 -4.309 16.226 -4.564 16.922 C-6.425 21.637 -6.425 21.637 -8.777 23.121 C-12.153 22.937 -14.698 21.61 -17.75 20.188 C-29.687 14.864 -42.378 12.321 -55.125 16.75 C-66.159 21.458 -73.8 29.369 -78.422 40.391 C-86.422 62.884 -87.068 90.619 -76.805 112.555 C-74.439 117.093 -71.886 120.6 -68 124 C-67.258 124.681 -66.515 125.361 -65.75 126.062 C-55.587 133.223 -44.081 134.175 -32 133 C-25.694 131.901 -19.507 130.274 -13.339 128.573 C-10.592 127.9 -7.79 127.465 -5 127 C-5 134.59 -5 142.18 -5 150 C-18.005 155.202 -28.619 157.508 -42.562 157.375 C-43.786 157.387 -45.01 157.398 -46.271 157.41 C-63.549 157.355 -77.982 152.115 -90.301 139.938 C-94.236 135.655 -97.26 131.116 -100 126 C-100.162 125.7 -100.162 125.7 -100.982 124.183 C-114.834 97.699 -113.09 63.87 -105 36 C-99.304 18.041 -87.511 4.721 -71 -4 C-47.234 -14.316 -22.902 -10.02 0 0 Z " fill="#000000" transform="translate(1058,184)"/>
<path d="M0 0 C9.24 0 18.48 0 28 0 C35.042 21.104 42.083 42.209 49.122 63.315 C52.39 73.114 55.659 82.912 58.929 92.711 C61.778 101.248 64.626 109.785 67.472 118.323 C68.981 122.846 70.489 127.37 71.999 131.893 C73.419 136.145 74.837 140.397 76.254 144.65 C76.776 146.215 77.299 147.781 77.822 149.346 C78.533 151.473 79.241 153.601 79.95 155.73 C80.348 156.923 80.746 158.117 81.157 159.347 C82 162 82 162 82 163 C73.09 163 64.18 163 55 163 C50.38 148.48 45.76 133.96 41 119 C22.85 118.67 4.7 118.34 -14 118 C-14.66 120.97 -15.32 123.94 -16 127 C-16.824 129.849 -17.67 132.675 -18.566 135.5 C-18.805 136.262 -19.044 137.024 -19.291 137.808 C-19.79 139.399 -20.292 140.988 -20.796 142.578 C-21.569 145.02 -22.335 147.465 -23.1 149.91 C-23.588 151.461 -24.077 153.012 -24.566 154.562 C-24.796 155.295 -25.025 156.027 -25.261 156.781 C-26.885 161.885 -26.885 161.885 -28 163 C-29.927 163.087 -31.857 163.107 -33.785 163.098 C-34.838 163.095 -35.892 163.093 -36.977 163.09 C-38.339 163.081 -39.701 163.072 -41.062 163.062 C-43.37 163.051 -45.678 163.04 -47.986 163.029 C-48.988 163.024 -48.988 163.024 -54 163 C-43.739 130.986 -33.076 99.105 -22.43 67.217 C-19.976 59.867 -17.524 52.517 -15.072 45.167 C-10.05 30.11 -5.026 15.055 0 0 Z M13 26 C12.856 26.603 12.712 27.206 12.564 27.828 C8.236 45.715 2.909 63.189 -2.731 80.699 C-3.013 81.573 -3.294 82.447 -3.584 83.347 C-4.12 85.007 -4.657 86.667 -5.197 88.325 C-7 93.893 -7 93.893 -7 95 C6.86 95 20.72 95 35 95 C31.293 81.788 27.377 68.668 23.264 55.576 C20.822 47.768 18.505 39.944 16.496 32.013 C16.054 30.326 15.535 28.66 15 27 C14.34 26.67 13.68 26.34 13 26 Z " fill="#000000" transform="translate(500,176)"/>
<path d="M0 0 C8.25 0 16.5 0 25 0 C25 21.78 25 43.56 25 66 C46.78 66 68.56 66 91 66 C91 44.22 91 22.44 91 0 C99.25 0 107.5 0 116 0 C116 53.46 116 106.92 116 162 C107.75 162 99.5 162 91 162 C91 137.91 91 113.82 91 89 C69.22 89 47.44 89 25 89 C25 113.09 25 137.18 25 162 C16.75 162 8.5 162 0 162 C0 108.54 0 55.08 0 0 Z " fill="#000000" transform="translate(315,177)"/>
<path d="M0 0 C8.58 0 17.16 0 26 0 C31.068 16.776 36.131 33.553 41.184 50.334 C43.185 56.976 45.186 63.618 47.193 70.258 C48.801 75.577 50.404 80.898 52.001 86.219 C52.573 88.121 53.147 90.021 53.723 91.921 C57.64 104.847 61.003 117.83 64 131 C64.143 130.36 64.286 129.719 64.433 129.06 C68.707 109.963 74.255 91.353 79.972 72.649 C82.404 64.686 84.815 56.716 87.227 48.746 C88.146 45.71 89.065 42.673 89.984 39.636 C90.212 38.882 90.44 38.128 90.676 37.351 C93.13 29.243 95.588 21.137 98.047 13.031 C98.25 12.363 98.452 11.694 98.661 11.005 C99.774 7.337 100.887 3.668 102 0 C110.58 0 119.16 0 128 0 C124.626 12.373 124.626 12.373 122.774 18.21 C122.571 18.851 122.368 19.492 122.159 20.153 C121.495 22.252 120.827 24.351 120.16 26.449 C119.68 27.964 119.201 29.478 118.722 30.993 C117.701 34.216 116.68 37.439 115.657 40.662 C112.95 49.193 110.25 57.725 107.551 66.258 C107.414 66.69 107.414 66.69 106.721 68.879 C102.823 81.2 98.95 93.529 95.105 105.867 C94.875 106.606 94.645 107.345 94.407 108.107 C92.22 115.123 90.036 122.139 87.858 129.158 C87.258 131.093 86.656 133.028 86.053 134.963 C85.33 137.287 84.608 139.611 83.89 141.937 C83.566 142.975 83.243 144.013 82.909 145.082 C82.635 145.966 82.361 146.849 82.079 147.759 C80.487 152.541 78.722 157.264 77 162 C68.42 162 59.84 162 51 162 C49.25 157.333 47.555 152.779 46.049 148.049 C45.693 146.932 45.336 145.816 44.969 144.665 C44.589 143.466 44.208 142.267 43.816 141.031 C43.405 139.738 42.993 138.444 42.581 137.151 C41.47 133.661 40.362 130.171 39.254 126.681 C38.56 124.492 37.865 122.304 37.169 120.116 C29.255 95.217 21.432 70.29 13.662 45.346 C13.271 44.088 12.879 42.831 12.475 41.536 C11.718 39.103 10.96 36.671 10.203 34.238 C8.448 28.607 6.68 22.981 4.878 17.365 C4.548 16.337 4.218 15.308 3.879 14.249 C3.263 12.334 2.645 10.42 2.024 8.508 C1.755 7.673 1.487 6.839 1.21 5.979 C0.975 5.254 0.74 4.529 0.498 3.782 C0 2 0 2 0 0 Z " fill="#000000" transform="translate(575,177)"/>
<path d="M0 0 C7.92 0 15.84 0 24 0 C24 53.46 24 106.92 24 162 C16.08 162 8.16 162 0 162 C0 108.54 0 55.08 0 0 Z " fill="#000000" transform="translate(716,177)"/>
<path d="M0 0 C33.33 0 66.66 0 101 0 C101 22.937 101 22.937 93.5 33.625 C92.72 34.808 91.945 35.995 91.175 37.184 C89.591 39.618 87.987 42.036 86.365 44.444 C82.67 49.957 79.261 55.643 75.812 61.312 C74.487 63.466 73.16 65.618 71.832 67.77 C67.628 74.597 63.462 81.447 59.299 88.3 C54.158 96.758 48.97 105.187 43.768 113.607 C38.776 121.699 33.893 129.845 29 138 C41.21 138.165 41.21 138.165 103 139 C103 146.59 103 154.18 103 162 C68.35 162 33.7 162 -2 162 C-2 139.334 -2 139.334 4.766 130.496 C8.783 125.03 12.23 119.231 15.75 113.438 C17.14 111.175 18.53 108.914 19.922 106.652 C24.204 99.675 28.459 92.682 32.71 85.685 C37.114 78.441 41.552 71.218 46 64 C54.398 50.373 62.764 36.726 71 23 C47.57 23 24.14 23 0 23 C0 15.41 0 7.82 0 0 Z " fill="#000000" transform="translate(1072,177)"/>
<path d="M0 0 C3.446 2.271 6.064 4.65 7.34 8.672 C8.658 15.551 8.275 21.735 4.75 27.812 C-0.102 32.31 -3.243 33.163 -9.707 33.098 C-14.208 32.593 -16.907 30.299 -19.859 27.031 C-23.089 21.878 -22.781 14.231 -21.688 8.375 C-19.869 3.87 -18.241 2.5 -14.25 -0.188 C-9.221 -1.864 -4.91 -1.794 0 0 Z " fill="#000000" transform="translate(917.25,309.1875)"/>
<path d="M0 0 C1.987 0.207 3.972 0.457 5.938 0.812 C5.502 5.192 2.572 7.551 -0.438 10.438 C-0.933 10.927 -1.428 11.417 -1.938 11.922 C-7.837 17.695 -7.837 17.695 -11.105 18.008 C-11.813 17.985 -12.521 17.961 -13.25 17.938 C-14.508 17.896 -15.766 17.855 -17.062 17.812 C-15.564 8.907 -9.37 -0.092 0 0 Z " fill="#000000" transform="translate(767.0625,367.1875)"/>
<path d="M0 0 C4.62 0 9.24 0 14 0 C11.633 5.918 8.566 8.745 4 13 C3.196 13.825 2.391 14.65 1.562 15.5 C-2.214 17.71 -5.727 17.335 -10 17 C-8.624 13.15 -6.833 10.118 -4.438 6.812 C-1.075 2.149 -1.075 2.149 0 0 Z " fill="#000000" transform="translate(1093,368)"/>
<path d="M0 0 C4.769 1.152 8.029 5.129 11.344 8.566 C11.615 8.361 11.615 8.361 12.988 7.324 C13.704 6.785 14.419 6.247 15.156 5.691 C15.864 5.158 16.572 4.624 17.301 4.074 C20.601 1.638 22.423 0.307 26.531 0.441 C27.16 0.462 27.16 0.462 30.344 0.566 C29.793 4.716 27.501 7.072 24.844 10.191 C20.421 15.412 20.421 15.412 19.344 17.566 C7.146 18.937 7.146 18.937 3.031 15.809 C1.26 13.475 -0.213 11.114 -1.656 8.566 C-2.621 7.202 -3.598 5.846 -4.594 4.504 C-5.274 3.535 -5.955 2.565 -6.656 1.566 C-4.829 -0.261 -2.437 0.004 0 0 Z " fill="#000000" transform="translate(1133.65625,367.43359375)"/>
<path d="M0 0 C-0.451 1.461 -0.911 2.918 -1.375 4.375 C-1.503 4.781 -1.503 4.781 -2.148 6.836 C-3 9 -3 9 -5 11 C-6.176 10.526 -7.351 10.051 -8.562 9.562 C-15.759 6.911 -21.729 6.494 -29 9 C-34.358 12.096 -36.679 17.064 -38.594 22.77 C-40.478 33.113 -39.652 43.778 -34.312 52.875 C-29.491 57.306 -23.946 58.452 -17.52 58.238 C-12.634 57.776 -7.819 56.913 -3 56 C-3 59.63 -3 63.26 -3 67 C-15.15 69.867 -26.789 72.413 -38.188 65.812 C-45.882 60.535 -49.86 54.068 -52 45 C-53.994 31.804 -53.346 18.572 -45.73 7.121 C-34.682 -6.421 -15.006 -7.503 0 0 Z " fill="#000000" transform="translate(668,394)"/>
<path d="M0 0 C4.29 0 8.58 0 13 0 C18.681 14.819 24.11 29.727 29.458 44.669 C30.195 46.724 30.933 48.778 31.674 50.831 C32.728 53.755 33.773 56.682 34.816 59.609 C35.138 60.497 35.459 61.385 35.791 62.299 C36.082 63.123 36.374 63.947 36.674 64.796 C36.931 65.514 37.188 66.232 37.453 66.972 C38 69 38 69 38 73 C34.04 73 30.08 73 26 73 C23.421 66.686 21.166 60.498 19 54 C14.71 53.835 14.71 53.835 -7 53 C-7.66 55.97 -8.32 58.94 -9 62 C-10.213 65.723 -11.609 69.337 -13 73 C-16.96 73 -20.92 73 -25 73 C-24.397 67.014 -22.697 61.78 -20.648 56.141 C-20.311 55.197 -19.974 54.253 -19.627 53.28 C-18.549 50.268 -17.462 47.259 -16.375 44.25 C-15.667 42.275 -14.96 40.3 -14.254 38.324 C-10.887 28.926 -7.481 19.543 -4.039 10.172 C-3.746 9.372 -3.453 8.572 -3.151 7.748 C-1.12 2.241 -1.12 2.241 0 0 Z M6 13 C3.03 22.57 0.06 32.14 -3 42 C3.27 42 9.54 42 16 42 C14.515 37.215 14.515 37.215 7 13 C6.67 13 6.34 13 6 13 Z " fill="#000000" transform="translate(918,390)"/>
<path d="M0 0 C3.96 0 7.92 0 12 0 C12 20.13 12 40.26 12 61 C21.57 61 31.14 61 41 61 C41 64.63 41 68.26 41 72 C27.47 72 13.94 72 0 72 C0 48.24 0 24.48 0 0 Z " fill="#000000" transform="translate(315,391)"/>
<path d="M0 0 C3.96 0 7.92 0 12 0 C12 23.76 12 47.52 12 72 C8.04 72 4.08 72 0 72 C0 48.24 0 24.48 0 0 Z " fill="#000000" transform="translate(365,391)"/>
<path d="M0 0 C37.902 0 37.902 0 44.625 6.562 C47.747 12.096 47.6 17.798 47 24 C44.967 28.066 42.318 30.919 39 34 C39.928 34.598 40.856 35.196 41.812 35.812 C47.593 39.78 47.593 39.78 49 44 C49.956 57.768 49.956 57.768 46 63 C40.41 68.7 35.942 70.676 28 72 C18.76 72 9.52 72 0 72 C0 48.24 0 24.48 0 0 Z M12 10 C12 16.27 12 22.54 12 29 C14.372 29.041 16.744 29.082 19.188 29.125 C19.925 29.143 20.663 29.161 21.423 29.18 C25.413 29.214 28.46 28.871 32 27 C34.023 24.708 34.947 23.08 35.098 20 C34.852 16.745 34.464 14.513 32.25 12.062 C27.67 9.9 23.191 9.887 18.188 9.938 C17.167 9.948 17.167 9.948 12 10 Z M12 39 C12 46.26 12 53.52 12 61 C13.258 61.031 13.258 61.031 19.625 61.188 C20.406 61.215 21.186 61.242 21.991 61.27 C26.722 61.326 29.905 60.611 34 58 C36.445 54.608 37.253 51.985 37 47.875 C36.451 44.755 36.007 44.008 33.75 41.562 C27.105 37.787 19.407 38.931 12 39 Z " fill="#000000" transform="translate(392,391)"/>
<path d="M0 0 C13.2 0 26.4 0 40 0 C40 3.3 40 6.6 40 10 C30.76 10 21.52 10 12 10 C12 16.27 12 22.54 12 29 C20.58 29 29.16 29 38 29 C38 32.3 38 35.6 38 39 C29.42 39 20.84 39 12 39 C12 46.26 12 53.52 12 61 C21.24 61 30.48 61 40 61 C40 64.63 40 68.26 40 72 C34.464 72.025 28.928 72.043 23.392 72.055 C21.508 72.06 19.623 72.067 17.738 72.075 C15.035 72.088 12.332 72.093 9.629 72.098 C8.781 72.103 7.933 72.108 7.059 72.113 C5.039 72.113 3.019 72.062 1 72 C0 71 0 71 -0.12 68.184 C-0.118 66.925 -0.116 65.666 -0.114 64.369 C-0.114 63.676 -0.114 62.984 -0.114 62.27 C-0.113 59.97 -0.105 57.671 -0.098 55.371 C-0.096 53.781 -0.094 52.19 -0.093 50.6 C-0.09 46.406 -0.08 42.212 -0.069 38.018 C-0.057 32.991 -0.052 27.963 -0.046 22.935 C-0.037 15.29 -0.017 7.645 0 0 Z " fill="#000000" transform="translate(453,391)"/>
<path d="M0 0 C4.089 -0.1 8.178 -0.172 12.268 -0.22 C13.655 -0.24 15.042 -0.267 16.428 -0.302 C24.778 -0.507 32.684 -0.571 40 4 C45.03 8.872 46.378 13.207 46.562 20.188 C46.463 26.083 45.318 30.491 41.246 34.898 C40.649 35.386 40.052 35.873 39.438 36.375 C38.838 36.878 38.239 37.38 37.621 37.898 C36 39 36 39 34 39 C38.188 47.173 43.008 54.858 48.036 62.536 C48.548 63.329 49.059 64.121 49.586 64.938 C50.05 65.648 50.515 66.358 50.994 67.09 C52 69 52 69 52 72 C47.71 72 43.42 72 39 72 C36.88 68.354 34.761 64.706 32.646 61.056 C31.927 59.815 31.206 58.575 30.484 57.335 C29.446 55.551 28.412 53.766 27.379 51.98 C26.756 50.907 26.133 49.833 25.49 48.727 C24 46 24 46 23 43 C19.7 43 16.4 43 13 43 C13.005 43.843 13.01 44.686 13.016 45.554 C13.033 48.672 13.045 51.79 13.055 54.908 C13.06 56.259 13.067 57.61 13.075 58.962 C13.088 60.9 13.093 62.839 13.098 64.777 C13.103 65.945 13.108 67.113 13.114 68.316 C13 71 13 71 12 72 C10.169 72.099 8.334 72.13 6.5 72.125 C5.5 72.128 4.499 72.13 3.469 72.133 C1 72 1 72 0 71 C-0.094 68.791 -0.117 66.58 -0.114 64.369 C-0.114 63.676 -0.114 62.984 -0.114 62.27 C-0.113 59.97 -0.105 57.671 -0.098 55.371 C-0.096 53.781 -0.094 52.19 -0.093 50.6 C-0.09 46.406 -0.08 42.212 -0.069 38.018 C-0.058 33.742 -0.054 29.466 -0.049 25.189 C-0.038 16.793 -0.021 8.396 0 0 Z M13 10 C13 17.59 13 25.18 13 33 C25.455 33 25.455 33 30 31 C32.953 27.82 34.249 25.218 34.5 20.938 C33.936 16.5 33.352 14.922 30 12 C23.994 9.478 19.94 10 13 10 Z " fill="#000000" transform="translate(506,391)"/>
<path d="M0 0 C13.2 0 26.4 0 40 0 C40 3.3 40 6.6 40 10 C31.09 10 22.18 10 13 10 C13 16.27 13 22.54 13 29 C21.25 29 29.5 29 38 29 C38 32.3 38 35.6 38 39 C29.75 39 21.5 39 13 39 C13 46.26 13 53.52 13 61 C21.91 61 30.82 61 40 61 C40 64.63 40 68.26 40 72 C34.464 72.025 28.928 72.043 23.392 72.055 C21.508 72.06 19.623 72.067 17.738 72.075 C15.035 72.088 12.332 72.093 9.629 72.098 C8.781 72.103 7.933 72.108 7.059 72.113 C5.039 72.113 3.019 72.062 1 72 C0 71 0 71 -0.12 68.184 C-0.118 66.925 -0.116 65.666 -0.114 64.369 C-0.114 63.676 -0.114 62.984 -0.114 62.27 C-0.113 59.97 -0.105 57.671 -0.098 55.371 C-0.096 53.781 -0.094 52.19 -0.093 50.6 C-0.09 46.406 -0.08 42.212 -0.069 38.018 C-0.057 32.991 -0.052 27.963 -0.046 22.935 C-0.037 15.29 -0.017 7.645 0 0 Z " fill="#000000" transform="translate(565,391)"/>
<path d="M0 0 C3.96 0 7.92 0 12 0 C12.33 10.23 12.66 20.46 13 31 C14.588 28.958 16.176 26.916 17.812 24.812 C22.211 19.187 26.731 13.683 31.382 8.265 C34.911 4.148 34.911 4.148 36.284 1.853 C38 0 38 0 40.635 -0.454 C41.151 -0.444 41.151 -0.444 43.762 -0.391 C44.88 -0.378 45.998 -0.365 47.15 -0.352 C48.318 -0.318 49.485 -0.285 50.688 -0.25 C51.866 -0.232 53.045 -0.214 54.26 -0.195 C57.174 -0.148 60.087 -0.082 63 0 C64.999 3.948 66.993 7.899 68.981 11.853 C69.659 13.198 70.338 14.543 71.019 15.886 C71.995 17.816 72.967 19.747 73.938 21.68 C74.524 22.842 75.111 24.005 75.715 25.203 C77 28 77 28 77 30 C77.66 30 78.32 30 79 30 C79.272 29.13 79.544 28.261 79.824 27.365 C80.952 24.138 82.28 21.212 83.82 18.164 C84.088 17.632 84.088 17.632 85.441 14.941 C85.997 13.847 86.553 12.753 87.125 11.625 C87.688 10.507 88.252 9.39 88.832 8.238 C90.218 5.49 91.608 2.745 93 0 C97.62 0 102.24 0 107 0 C106.291 1.439 105.58 2.877 104.865 4.313 C104.185 5.687 103.511 7.063 102.844 8.443 C100.551 13.114 98.073 17.597 95.387 22.055 C85.202 39.452 82.992 52.105 84 72 C80.04 72 76.08 72 72 72 C72.102 70.243 72.204 68.486 72.309 66.676 C72.907 45.344 66.875 32.014 56 14 C54.995 12.271 53.999 10.538 53.016 8.797 C52.621 8.104 52.227 7.412 51.821 6.698 C51 5 51 5 51 3 C50.34 3 49.68 3 49 3 C48.734 3.58 48.467 4.159 48.193 4.756 C46.964 7.067 45.591 8.89 43.918 10.898 C43.315 11.625 42.713 12.353 42.092 13.102 C41.778 13.477 41.778 13.477 40.188 15.375 C39.571 16.118 38.954 16.86 38.318 17.625 C37.712 18.355 37.105 19.084 36.48 19.836 C35.892 20.547 35.303 21.258 34.697 21.991 C33.624 23.261 32.528 24.513 31.401 25.735 C29.988 27.289 29.988 27.289 28 30 C28.348 33.543 30.167 36.078 32.098 39 C32.731 39.965 33.365 40.929 34.017 41.923 C34.355 42.431 34.355 42.431 36.062 45 C36.742 46.034 37.421 47.067 38.121 48.132 C40.976 52.467 43.845 56.792 46.773 61.078 C47.488 62.125 48.202 63.172 48.938 64.25 C49.545 65.121 50.152 65.993 50.777 66.891 C52 69 52 69 52 72 C47.365 73.033 43.612 73.238 39 72 C34.035 67.979 30.94 61.895 27.688 56.5 C26.739 55.004 25.787 53.51 24.83 52.02 C22.504 48.375 20.238 44.699 18 41 C15.544 42.099 15.544 42.099 13 44 C12.341 46.911 12.341 46.911 12.293 50.418 C12.264 51.672 12.235 52.925 12.205 54.217 C12.199 55.527 12.193 56.837 12.188 58.188 C12.164 59.523 12.139 60.858 12.111 62.193 C12.052 65.463 12.016 68.73 12 72 C8.04 72 4.08 72 0 72 C0 48.24 0 24.48 0 0 Z " fill="#000000" transform="translate(679,391)"/>
<path d="M0 0 C5.61 0 11.22 0 17 0 C19.719 6.646 22.187 13.305 24.418 20.129 C24.721 21.045 25.023 21.96 25.335 22.904 C26.289 25.789 27.239 28.676 28.188 31.562 C29.448 35.398 30.713 39.233 31.98 43.066 C32.125 43.507 32.125 43.507 32.855 45.74 C33.122 46.548 33.389 47.357 33.665 48.19 C33.782 48.547 33.782 48.547 34.375 50.353 C35 52 35 52 36 53 C36.112 52.675 36.112 52.675 36.677 51.033 C38.993 44.3 41.313 37.569 43.635 30.838 C44.503 28.323 45.369 25.808 46.234 23.292 C47.475 19.685 48.72 16.079 49.965 12.473 C50.353 11.34 50.742 10.208 51.142 9.042 C51.503 8.001 51.863 6.96 52.234 5.887 C52.552 4.965 52.869 4.044 53.196 3.094 C54 1 54 1 55 0 C60.28 0 65.56 0 71 0 C71 23.76 71 47.52 71 72 C67.37 72 63.74 72 60 72 C59.67 54.84 59.34 37.68 59 20 C56.587 26.909 54.174 33.819 51.688 40.938 C50.932 43.1 50.176 45.263 49.397 47.492 C48.79 49.233 48.182 50.974 47.574 52.715 C47.266 53.597 46.957 54.48 46.639 55.389 C44.713 60.911 42.838 66.448 41 72 C37.37 72 33.74 72 30 72 C28.079 66.381 26.158 60.762 24.238 55.142 C23.587 53.235 22.935 51.329 22.283 49.422 C21.339 46.662 20.396 43.901 19.453 41.141 C19.168 40.306 18.882 39.471 18.588 38.611 C16.359 32.085 14.174 25.544 12 19 C12.002 19.649 12.004 20.298 12.007 20.967 C12.029 27.699 12.044 34.43 12.055 41.162 C12.06 43.677 12.067 46.192 12.075 48.708 C12.088 52.314 12.093 55.921 12.098 59.527 C12.103 60.66 12.108 61.792 12.113 62.958 C12.113 63.999 12.113 65.04 12.114 66.113 C12.116 67.035 12.118 67.956 12.12 68.906 C12 71 12 71 11 72 C9.336 72.098 7.667 72.13 6 72.125 C5.546 72.126 5.546 72.126 3.25 72.133 C1 72 1 72 0 71 C-0.094 68.791 -0.117 66.58 -0.114 64.369 C-0.114 63.676 -0.114 62.984 -0.114 62.27 C-0.113 59.97 -0.105 57.671 -0.098 55.371 C-0.096 53.781 -0.094 52.19 -0.093 50.6 C-0.09 46.406 -0.08 42.212 -0.069 38.018 C-0.058 33.742 -0.054 29.466 -0.049 25.189 C-0.038 16.793 -0.02 8.396 0 0 Z " fill="#000000" transform="translate(815,391)"/>
<path d="M0 0 C3.96 0 7.92 0 12 0 C12.33 10.23 12.66 20.46 13 31 C15.64 27.7 18.28 24.4 21 21 C23.249 18.238 25.509 15.489 27.801 12.762 C30 10 30 10 31.855 7.082 C33.749 4.219 35.273 2.096 38 0 C42.782 -0.822 47.201 -0.607 52 0 C49.205 4.363 46.144 8.332 42.75 12.25 C41.778 13.387 40.806 14.525 39.836 15.664 C39.359 16.224 38.881 16.784 38.39 17.36 C36.356 19.759 34.358 22.184 32.375 24.625 C31.743 25.401 31.112 26.177 30.461 26.977 C29 29 29 29 28 32 C28.829 33.847 28.829 33.847 30.176 35.922 C30.67 36.693 31.163 37.464 31.672 38.259 C32.213 39.081 32.755 39.903 33.312 40.75 C33.857 41.595 34.402 42.439 34.963 43.309 C38.831 49.288 42.765 55.227 46.788 61.103 C49.172 64.613 51.184 68.165 53 72 C48.225 73.372 43.602 74.186 39 72 C33.745 66.811 30.206 60.079 26.582 53.704 C24.577 50.277 22.358 47.027 20.084 43.775 C19 42 19 42 19 40 C18.216 40.66 17.433 41.32 16.625 42 C14 44 14 44 12 44 C12 53.24 12 62.48 12 72 C8.04 72 4.08 72 0 72 C0 48.24 0 24.48 0 0 Z " fill="#000000" transform="translate(962,391)"/>
<path d="M0 0 C3.96 0 7.92 0 12 0 C12 20.13 12 40.26 12 61 C21.57 61 31.14 61 41 61 C41 64.63 41 68.26 41 72 C27.47 72 13.94 72 0 72 C0 48.24 0 24.48 0 0 Z " fill="#000000" transform="translate(1020,391)"/>
<path d="M0 0 C13.2 0 26.4 0 40 0 C40 3.3 40 6.6 40 10 C30.76 10 21.52 10 12 10 C12 16.27 12 22.54 12 29 C20.58 29 29.16 29 38 29 C38 32.3 38 35.6 38 39 C29.42 39 20.84 39 12 39 C12 46.26 12 53.52 12 61 C21.24 61 30.48 61 40 61 C40 64.63 40 68.26 40 72 C26.8 72 13.6 72 0 72 C0 48.24 0 24.48 0 0 Z " fill="#000000" transform="translate(1070,391)"/>
<path d="M0 0 C34.323 0 34.323 0 40.375 4.938 C40.911 5.618 41.447 6.299 42 7 C42.557 7.681 43.114 8.361 43.688 9.062 C47.237 14.302 46.519 20.945 46 27 C44.343 32.416 40.468 35.795 36 39 C35.34 39 34.68 39 34 39 C38.188 47.173 43.008 54.858 48.036 62.536 C48.548 63.329 49.059 64.121 49.586 64.938 C50.05 65.648 50.515 66.358 50.994 67.09 C52 69 52 69 52 72 C47.482 72.721 43.493 72.968 39 72 C35.384 68.666 33.459 64.694 31.312 60.312 C31.016 59.761 31.016 59.761 29.518 56.971 C27.077 52.376 24.934 47.835 23 43 C19.37 43 15.74 43 12 43 C12 52.57 12 62.14 12 72 C8.04 72 4.08 72 0 72 C0 48.24 0 24.48 0 0 Z M12 10 C12 17.59 12 25.18 12 33 C25.4 33 25.4 33 31 30 C33.755 26.494 34.221 23.712 34 19.375 C33.481 16.022 33.107 15.118 30.75 12.5 C24.573 9.131 19.175 10 12 10 Z " fill="#000000" transform="translate(1123,391)"/>
</svg>
