<svg xmlns="http://www.w3.org/2000/svg" viewBox="0 0 619 570" fill="currentColor" role="img" aria-label="IKKA">
<path fill-rule="evenodd" d="M501,385 500,386 500,392 497,395 487,426 484,432 482,443 480,445 474,459 474,462 469,477 466,482 460,502 454,517 453,523 447,537 448,543 449,544 475,543 478,539 478,535 482,529 482,524 484,521 488,506 490,504 492,505 496,504 497,505 550,505 552,507 551,508 557,525 557,528 559,531 560,538 563,544 570,544 571,543 572,544 575,543 576,544 585,544 586,543 592,544 593,542 589,533 588,526 584,518 584,514 576,495 572,479 564,460 562,451 558,442 558,439 556,436 551,420 547,412 547,409 542,398 541,392 537,385Z M520,414 522,416 527,433 529,436 532,448 534,451 535,457 542,477 540,479 499,479 497,477 499,473 500,465 502,463 501,461 503,459 503,456 505,454 505,451 509,443 509,439 511,437 513,428 515,426 516,419Z M413,385 394,385 393,384 392,385 385,385 363,411 354,420 325,455 323,453 323,386 322,385 295,385 294,386 294,390 293,391 294,392 294,541 295,542 322,542 323,541 323,488 336,473 345,482 346,485 362,506 364,511 376,526 376,528 380,532 381,535 387,543 389,544 408,544 409,543 411,544 413,543 414,544 415,543 419,544 421,542 399,510 393,503 386,491 379,483 378,480 367,465 362,460 362,458 359,454 363,448 362,446 364,444 366,445 400,407 405,400 415,390Z M120,385 118,387 118,543 119,544 120,543 146,543 147,542 147,522 146,521 147,520 146,516 147,513 147,505 146,504 147,503 147,495 146,494 147,493 147,479 146,476 147,472 149,470 210,542 240,542 242,538 242,535 182,457 212,425 227,407 241,393 244,388 241,385 238,384 237,385 233,385 232,384 231,385 228,384 227,385 225,384 224,385 220,384 219,385 217,384 216,385 212,385 208,390 208,392 196,404 197,405 186,415 181,422 173,430 174,431 171,435 170,434 155,450 154,452 155,453 153,455 152,454 149,457 147,455 147,444 146,443 147,441 147,436 146,435 147,434 146,432 147,431 146,427 147,426 147,422 146,421 147,419 146,415 147,412 146,409 147,408 147,403 146,402 147,401 147,386 146,385 127,385 126,384 125,385Z M55,385 47,385 46,384 45,385 29,385 26,388 26,543 27,544 31,544 32,543 35,544 36,543 44,543 45,544 46,543 51,543 53,544 55,542 54,541 56,534 55,530 56,528 56,524 55,523 56,522 56,514 55,513 55,508 56,507 56,386Z M336,119 333,122 334,124 333,127 333,137 334,138 333,139 334,143 333,146 334,148 333,152 334,154 334,176 333,177 334,178 334,189 333,190 334,193 334,198 333,199 334,203 333,204 333,219 334,220 355,220 357,217 358,182 360,180 377,180 379,181 382,178 381,177 382,175 382,162 381,161 382,158 381,157 359,157 357,155 357,151 358,150 357,149 357,136 358,135 357,134 358,132 357,131 357,121 353,119Z M232,119 230,121 230,126 229,127 229,137 230,138 229,139 230,143 229,146 229,155 227,157 205,157 203,159 204,162 203,165 204,166 204,180 205,181 222,181 226,180 229,183 229,189 230,190 229,193 229,219 232,221 233,220 236,221 237,220 239,221 241,220 242,221 244,220 252,220 253,219 253,120 252,119Z M281,26 280,27 273,27 272,28 262,29 258,32 250,32 239,37 234,38 218,46 212,51 209,52 203,59 201,58 197,62 198,63 195,66 194,65 189,69 190,70 188,72 187,71 174,86 173,88 174,89 170,92 163,105 164,107 158,114 159,116 157,118 154,125 155,127 153,129 152,135 150,139 150,143 148,149 148,155 147,156 147,186 148,187 149,200 154,220 156,222 156,226 158,228 159,232 165,244 167,246 167,248 178,263 196,282 215,296 224,300 226,302 232,304 234,306 241,307 243,309 248,310 251,312 263,315 268,315 269,316 293,317 294,318 298,317 299,318 300,317 311,317 317,315 327,314 331,312 344,309 346,307 352,306 356,303 360,302 385,286 409,262 420,246 428,230 428,227 430,225 435,209 437,197 438,196 438,189 439,188 439,156 438,155 437,144 435,139 433,127 430,121 429,116 423,106 419,96 405,77 383,56 380,55 364,44 356,41 352,38 336,32 329,32 324,29 305,27 304,26Z M274,42 302,41 303,42 312,42 313,43 323,44 339,49 351,55 353,55 371,66 391,84 405,103 412,117 414,119 414,122 418,130 418,134 422,144 422,151 424,159 424,180 423,181 422,202 420,204 415,221 407,237 401,247 398,250 397,254 378,273 377,272 368,280 360,285 339,295 313,302 310,302 308,300 308,279 307,278 308,276 308,269 307,268 308,266 308,215 307,214 308,213 308,97 307,96 305,96 303,94 283,94 279,97 279,300 277,302 259,299 256,297 244,294 226,285 208,272 194,258 182,242 173,225 164,198 163,178 162,177 163,176 162,174 162,160 164,152 164,145 172,121 187,95 205,75 226,59 234,56 238,53 240,53 243,50 250,49 263,44 268,44Z"/>
</svg>
