<svg xmlns="http://www.w3.org/2000/svg" viewBox="0 0 1592 640" fill="currentColor" role="img" aria-label="MODIFY real estate">
<path fill-rule="evenodd" d="M1214,500 1197,513 1190,527 1188,551 1195,573 1207,585 1222,591 1244,592 1264,585 1276,571 1257,563 1245,574 1231,575 1217,567 1212,554 1214,552 1277,552 1278,531 1272,515 1262,504 1249,498 1225,497Z M1212,532 1216,523 1229,514 1245,516 1255,530 1253,536 1214,536Z M1015,505 1008,513 1005,523 1024,529 1033,517 1050,514 1060,521 1063,534 1028,542 1014,548 1008,554 1004,565 1008,582 1016,589 1025,592 1046,591 1064,580 1074,590 1096,591 1099,577 1091,576 1087,572 1087,529 1080,509 1072,502 1057,497 1034,497Z M1063,552 1062,563 1054,573 1040,576 1030,571 1029,562 1033,557 1060,550Z M849,498 836,504 827,514 826,535 835,546 843,550 877,558 881,562 881,568 874,574 856,574 846,570 835,560 821,574 832,584 853,592 877,592 892,587 901,579 906,569 906,556 903,549 892,540 857,532 850,527 849,522 855,516 870,514 881,518 891,527 905,512 895,503 883,498 871,496Z M757,496 736,502 723,514 716,530 715,554 722,573 732,584 747,591 767,593 790,586 801,576 803,570 784,563 773,573 756,574 743,565 739,554 741,552 804,552 806,534 801,517 791,505 777,498Z M740,530 748,518 765,514 778,522 782,533 742,535Z M506,505 499,513 496,523 515,529 523,518 540,514 552,523 553,534 515,543 505,548 498,555 495,564 499,582 507,589 516,592 538,591 555,580 567,591 588,591 590,576 583,576 578,572 578,526 572,510 559,500 543,496 520,498Z M553,553 551,567 542,574 527,575 520,569 521,560 527,556 548,551Z M418,498 401,507 390,523 387,534 387,555 391,568 404,584 416,590 445,592 458,588 471,578 474,569 456,563 445,573 427,574 414,564 411,554 413,552 476,552 477,531 474,520 461,504 452,499 437,496Z M411,532 421,517 437,514 449,521 454,533 413,535Z M374,497 355,498 339,513 335,498 315,499 316,590 339,589 341,531 353,519 374,517 376,506Z M1140,471 1120,478 1120,496 1103,499 1103,515 1120,518 1120,568 1126,584 1139,591 1158,592 1172,588 1176,584 1172,570 1157,575 1150,573 1145,567 1144,518 1173,516 1174,500 1146,499 1144,472Z M957,470 935,477 935,496 918,499 918,515 935,518 935,570 938,580 953,591 975,592 989,587 990,578 987,570 979,574 969,574 961,568 960,518 989,516 990,499 962,498 960,471Z M608,457 608,578 620,591 642,592 650,588 652,574 637,574 632,568 632,458Z M48,51 47,317 91,317 91,192 93,190 177,306 265,182 267,184 266,317 311,318 312,52 308,54 178,234Z M1297,47 1396,232 1396,317 1443,318 1443,233 1545,48 1486,48 1421,175 1354,47Z M1270,47 1104,48 1105,318 1152,317 1152,211 1154,209 1256,208 1255,162 1154,162 1152,160 1152,95 1154,93 1270,93Z M985,47 984,317 1031,318 1032,48Z M703,47 702,317 817,317 853,307 879,292 896,277 912,256 925,228 930,203 930,170 925,144 917,122 904,100 887,81 871,69 828,51 803,47Z M751,93 805,93 826,98 853,114 869,134 880,167 881,188 878,209 865,237 842,258 803,271 751,272 749,270 749,95Z M489,47 464,52 442,61 420,75 399,95 384,117 373,143 368,169 368,196 373,223 383,247 397,268 416,287 431,298 468,314 514,318 545,312 568,302 588,289 607,271 624,246 635,220 640,191 639,164 632,137 621,114 609,97 589,77 568,63 542,52 518,47Z M486,93 521,93 545,102 571,124 581,139 589,160 591,193 579,230 556,256 525,271 489,272 458,260 432,235 418,203 417,167 427,137 436,124 454,107 467,99Z"/>
</svg>
