<svg xmlns="http://www.w3.org/2000/svg" viewBox="0 0 8097 1100" fill="currentColor" role="img" aria-label="Pepperl+Fuchs">
<path fill-rule="evenodd" d="M5074,559 4992,564 4988,734 4813,741 4816,824 4992,828 4996,1000 5080,997 5084,824 5258,821 5255,737 5081,732Z M3286,389 3284,998 3708,1000 3706,890 3413,889 3407,746 3685,737 3681,634 3411,633 3408,506 3707,499 3710,392Z M3096,399 3052,388 2750,391 2752,1000 2875,996 2878,782 3072,775 3127,748 3175,691 3200,615 3191,509 3153,443Z M2875,499 3045,505 3078,555 3062,646 3022,672 2878,672Z M2563,398 2219,392 2221,999 2344,998 2349,780 2538,776 2600,746 2641,698 2671,610 2664,519 2626,446Z M2345,498 2483,495 2521,510 2551,579 2528,651 2492,672 2348,673Z M1511,398 1167,392 1170,1000 1292,997 1296,781 1506,770 1553,741 1594,689 1618,615 1610,514 1571,443Z M1292,499 1414,494 1465,507 1497,563 1482,643 1439,672 1295,672Z M6990,388 6988,1002 7111,1001 7114,741 7338,740 7343,1002 7465,1004 7467,391 7343,390 7338,630 7118,631 7110,389Z M6283,387 6162,392 6161,809 6129,872 6070,897 5981,885 5928,818 5922,390 5799,390 5799,804 5830,904 5896,976 5994,1012 6110,1007 6189,975 6255,911 6285,817Z M5726,387 5330,390 5331,999 5454,996 5457,740 5696,735 5693,634 5458,633 5455,502 5725,500Z M4380,387 4376,997 4775,999 4774,889 4501,884 4500,392Z M3807,387 3805,999 3928,996 3927,768 4112,773 4147,832 4167,995 4283,1000 4260,790 4237,745 4194,707 4251,651 4275,568 4268,501 4237,437 4151,389Z M3928,499 4119,505 4147,548 4139,623 4096,657 3932,660Z M2120,387 1698,391 1700,999 2124,997 2119,888 1828,888 1823,748 2099,738 2097,633 1828,633 1824,504 2118,499Z M7731,375 7644,407 7593,454 7563,521 7563,601 7593,658 7647,700 7869,775 7894,815 7891,863 7839,901 7748,900 7685,863 7658,797 7543,798 7542,840 7571,919 7631,976 7736,1014 7831,1013 7923,983 7988,928 8019,849 8011,763 7981,709 7939,673 7707,594 7683,567 7685,519 7728,481 7815,481 7867,516 7886,570 7994,570 7996,521 7966,455 7908,405 7818,375Z M6613,374 6502,414 6424,485 6379,599 6371,722 6402,858 6463,949 6551,1005 6657,1018 6762,992 6836,937 6881,866 6895,768 6776,765 6752,851 6686,900 6618,901 6573,885 6524,835 6493,748 6493,657 6517,570 6575,505 6657,486 6728,512 6778,595 6894,588 6864,495 6785,405 6715,377Z M77,78 79,1000 1008,998 1006,77Z M316,940 320,455 688,455 745,469 793,508 822,567 814,651 769,707 698,739 476,737 479,573 584,573 590,654 660,657 694,642 719,606 718,577 692,541 655,526 444,527 440,940Z M753,133 750,206 616,212 593,234 587,280 595,292 751,292 751,372 594,372 584,425 479,425 472,372 316,369 318,292 475,290 483,195 531,147 584,131Z"/>
</svg>
