<svg xmlns="http://www.w3.org/2000/svg" viewBox="0 0 1775 615" fill="currentColor" role="img" aria-label="Silvego">
<path fill-rule="evenodd" d="M829,495 811,511 808,532 811,543 820,553 835,560 845,560 859,553 868,543 868,539 855,538 849,546 837,548 830,546 821,533 868,531 868,511 850,495Z M821,518 835,505 846,506 857,517 855,521 823,521Z M757,495 738,513 738,541 752,556 773,560 787,553 795,543 795,538 784,537 778,545 771,548 759,547 749,533 749,520 753,512 763,505 774,506 785,518 794,518 795,510 778,495Z M667,495 665,556 673,559 677,555 677,519 680,511 687,506 697,505 708,515 708,555 713,559 719,558 722,555 722,516 718,506 705,495 686,495 679,501 674,495Z M634,495 631,502 631,553 634,558 640,559 646,554 646,499 642,495Z M581,495 568,506 568,520 582,531 600,535 602,544 594,548 584,547 577,538 568,538 567,546 579,557 596,560 612,550 616,545 616,537 605,525 586,520 580,512 588,505 595,505 606,517 612,517 615,511 601,495Z M918,477 917,487 927,491 926,555 934,559 940,556 940,479Z M1142,474 1130,474 1121,478 1110,492 1110,513 1121,526 1130,530 1142,530 1152,523 1155,525 1152,540 1147,546 1131,547 1122,534 1113,535 1113,542 1126,557 1136,559 1151,556 1159,549 1167,525 1163,491 1152,478Z M1127,489 1138,485 1152,493 1153,510 1146,517 1134,518 1125,513 1121,500Z M1056,474 1037,489 1037,516 1056,530 1066,530 1078,523 1079,536 1068,547 1056,546 1044,533 1038,535 1037,541 1050,556 1074,557 1082,552 1090,540 1090,494 1078,478 1068,474Z M1062,485 1072,488 1080,500 1075,514 1064,519 1054,517 1047,507 1048,494 1053,488Z M981,474 965,485 960,494 960,510 972,526 981,530 992,530 1004,523 1006,527 1003,540 996,547 981,546 974,535 968,533 964,535 964,544 977,557 1000,557 1013,545 1017,532 1017,501 1013,489 1003,478 993,474Z M986,485 999,489 1003,494 1003,511 992,518 979,516 973,506 976,491Z M633,474 632,486 642,488 646,484 646,476 642,473Z M1423,128 1382,153 1366,169 1349,194 1336,231 1336,278 1340,285 1340,294 1349,315 1365,339 1382,356 1407,373 1442,386 1493,386 1499,382 1507,382 1528,373 1553,356 1569,340 1585,317 1598,283 1599,238 1594,211 1574,175 1568,175 1537,199 1553,225 1557,243 1557,264 1554,280 1545,300 1518,329 1493,341 1473,344 1442,341 1417,329 1393,305 1381,280 1378,256 1381,229 1393,204 1421,177 1441,168 1432,136Z M852,129 849,134 850,378 854,381 1008,381 1012,376 1012,341 1009,337 893,335 893,277 974,275 984,241 980,233 895,234 893,175 896,172 1008,173 1012,168 1011,131 1008,128Z M594,128 593,141 657,310 657,317 674,357 674,364 678,368 678,375 684,381 710,381 714,378 719,360 723,356 723,349 804,131 801,128 761,128 755,135 717,246 708,264 708,271 697,295 637,131 633,128Z M434,129 431,133 432,378 435,381 584,381 586,370 576,337 475,335 475,130Z M318,128 315,132 315,377 318,381 355,381 360,374 360,135 355,128Z M1159,124 1135,132 1112,145 1088,166 1075,183 1063,206 1054,241 1054,268 1058,277 1058,288 1076,327 1092,347 1113,365 1135,377 1162,386 1215,386 1220,382 1241,377 1262,365 1287,340 1286,236 1186,233 1179,238 1172,271 1174,275 1242,277 1241,326 1214,341 1181,344 1161,341 1131,325 1112,304 1099,275 1099,234 1103,229 1103,221 1116,199 1130,185 1160,168 1176,165 1214,168 1239,181 1258,199 1263,199 1290,170 1262,145 1229,128 1203,123Z M127,124 101,136 76,161 68,182 68,208 72,221 95,249 114,262 196,288 208,302 208,320 193,337 170,344 153,344 126,337 108,322 93,303 79,307 58,320 55,326 84,361 109,377 134,386 186,386 216,373 245,344 253,319 249,287 240,271 212,247 137,226 123,218 113,206 112,187 123,173 144,165 177,168 208,190 218,190 248,169 225,145 195,128 170,123Z M1657,93 1654,96 1654,136 1665,139 1667,127 1671,125 1681,138 1693,139 1696,135 1686,124 1693,113 1692,100 1686,94Z M1666,107 1676,104 1681,109 1669,113Z M1672,68 1654,73 1635,88 1626,106 1626,127 1635,145 1653,160 1664,164 1682,164 1693,160 1713,142 1718,134 1720,113 1713,91 1699,77Z M1669,80 1689,83 1707,102 1707,131 1696,145 1680,153 1666,153 1655,149 1641,135 1637,125 1637,108 1641,98 1651,87Z M1470,55 1429,84 1477,213 1483,215 1595,138 1597,132 1581,92 1574,86Z M1571,135 1515,176 1512,174 1547,127Z M1490,108 1533,123 1491,181 1487,111Z M1452,96 1476,106 1474,159 1470,155 1461,123 1450,98Z M1552,95 1568,103 1575,117 1573,122 1550,113 1549,98Z M1494,95 1504,83 1513,83 1537,93 1537,108 1535,110Z M1456,83 1473,71 1490,77 1479,91Z"/>
</svg>
