<svg xmlns="http://www.w3.org/2000/svg" viewBox="0 0 1485 1232" fill="currentColor" role="img" aria-label="Summit Submission Hunting Gym">
<path fill-rule="evenodd" d="M797,1100 797,1116 809,1125 809,1171 797,1179 799,1198 849,1198 850,1178 836,1171 836,1145 838,1143 856,1170 863,1170 868,1167 883,1142 885,1144 885,1171 871,1178 870,1196 872,1198 923,1197 923,1178 916,1175 912,1169 913,1123 923,1118 923,1099 921,1097 879,1098 863,1126 859,1124 843,1097 803,1097Z M673,1097 671,1099 672,1119 682,1125 704,1155 704,1172 691,1178 691,1197 745,1198 747,1196 746,1178 734,1172 734,1155 755,1126 767,1119 767,1099 765,1097 729,1098 728,1118 732,1122 732,1126 726,1135 721,1137 713,1126 717,1117 716,1098Z M578,1098 557,1118 558,1180 580,1198 608,1198 615,1192 620,1198 641,1198 642,1140 600,1139 599,1154 601,1156 609,1155 612,1158 612,1170 607,1174 592,1174 586,1168 586,1127 590,1122 611,1122 616,1132 641,1132 642,1114 621,1097Z M1081,1002 1082,1066 1104,1084 1130,1084 1138,1078 1144,1084 1164,1084 1166,1082 1166,1026 1125,1024 1122,1031 1123,1041 1132,1041 1136,1045 1136,1054 1129,1060 1113,1059 1110,1055 1110,1012 1114,1008 1134,1008 1141,1019 1164,1018 1166,1016 1165,999 1146,983 1104,983Z M943,983 941,1003 952,1010 952,1056 941,1065 941,1082 943,1084 988,1083 988,1064 977,1057 976,1034 978,1032 1010,1083 1038,1084 1040,1082 1039,1012 1042,1007 1051,1003 1051,985 1048,983 1006,983 1003,985 1003,1003 1015,1010 1015,1031 1013,1033 984,984Z M854,983 853,1004 863,1009 863,1058 853,1063 853,1083 902,1084 904,1065 893,1057 893,1010 904,1003 904,985 902,983Z M721,983 720,1023 722,1025 740,1024 743,1010 747,1006 755,1009 755,1057 743,1064 743,1083 796,1084 798,1065 785,1058 785,1009 788,1006 794,1006 801,1025 819,1024 820,985 818,983Z M587,983 585,985 585,1004 596,1010 596,1057 585,1064 584,1082 587,1084 630,1084 632,1082 632,1065 621,1058 621,1033 623,1031 654,1083 682,1084 684,1082 683,1012 686,1007 694,1004 694,984 650,983 647,985 647,1004 659,1011 659,1031 657,1033 628,984Z M450,984 450,1004 460,1010 460,1067 480,1084 525,1084 543,1069 544,1010 554,1004 555,986 553,983 511,983 508,985 508,1004 515,1012 515,1053 512,1059 507,1060 493,1059 490,1055 490,1009 497,1003 497,985 495,983Z M314,984 313,1001 316,1006 324,1009 325,1030 324,1058 313,1064 313,1082 315,1084 361,1083 361,1064 354,1057 354,1045 357,1041 379,1044 379,1057 373,1063 372,1082 374,1084 418,1084 420,1082 420,1064 408,1057 408,1010 420,1002 418,983 375,983 372,987 372,1003 379,1010 379,1022 374,1025 358,1025 354,1022 354,1009 361,1003 361,985 359,983Z M223,980 217,980 184,1002 180,1008 178,1038 199,1088 199,1092 194,1097 187,1098 170,1075 169,1068 178,1056 157,1023 146,1027 130,1040 126,1079 155,1125 165,1137 199,1148 233,1128 238,1121 241,1090 221,1042 221,1036 226,1031 235,1030 253,1056 253,1060 245,1068 244,1073 265,1106 290,1091 294,1069 295,1050 262,996 257,992Z M1257,903 1234,944 1224,968 1252,983 1268,971 1304,990 1301,993 1208,999 1188,1040 1289,1091 1292,1094 1291,1111 1320,1126 1353,1060 1325,1045 1322,1045 1312,1056 1307,1056 1276,1039 1278,1037 1368,1032 1395,979 1396,972 1369,958 1365,958 1356,969 1341,964 1286,936 1284,929 1287,918Z M178,837 171,836 85,862 74,848 43,858 60,920 65,927 93,919 97,915 97,909 106,903 167,885 176,890 183,915 176,923 110,942 103,935 97,935 69,944 89,1014 97,1014 122,1005 122,990 126,986 202,964 214,958 227,927 227,921 208,859Z M695,795 677,812 672,822 674,825 696,800Z M1272,803 1262,868 1284,904 1358,919 1385,922 1417,894 1427,842 1427,825 1407,792 1308,773Z M1307,829 1312,824 1319,823 1381,834 1386,841 1382,867 1376,873 1308,862 1303,854Z M652,767 651,773 658,782 674,781 657,765Z M1382,745 1332,745 1313,765 1336,770 1344,764 1372,756Z M1441,722 1443,732 1448,738 1443,743 1445,751 1451,747 1464,746 1484,756 1483,746 1449,723Z M168,722 169,726 177,725Z M1433,672 1430,670 1400,671 1396,674 1395,685 1388,689 1315,691 1308,674 1276,675 1275,713 1278,755 1280,757 1310,755 1318,738 1393,735 1402,752 1433,751 1435,749Z M1312,664 1316,668 1317,676 1323,682 1368,680 1344,656Z M779,527 761,529 778,529Z M1372,504 1331,514 1325,523 1316,544 1319,603 1308,608 1300,602 1294,579 1294,572 1307,563 1300,530 1296,523 1271,529 1256,556 1252,571 1268,633 1301,657 1305,658 1340,649 1348,644 1359,617 1354,564 1356,558 1361,554 1366,554 1372,559 1379,584 1376,590 1365,597 1375,637 1402,631 1420,599 1420,586 1405,528Z M128,381 124,381 99,445 131,486 78,494 50,562 78,574 83,574 93,562 97,562 164,590 167,593 165,608 185,619 183,621 163,620 156,636 80,634 71,617 42,616 38,619 37,684 82,714 35,740 34,812 36,814 67,815 72,800 79,797 151,799 156,815 159,817 189,818 192,815 193,736 160,734 152,755 108,754 106,752 150,726 150,709 108,681 110,679 154,681 157,684 158,695 162,703 191,704 195,702 196,625 227,545 195,533 186,547 180,549 138,531 188,523 196,506 166,466 168,464 209,481 211,488 208,502 239,516 269,445 269,439 244,428 238,428 228,439 157,412 155,410 156,394Z M1300,355 1293,355 1256,376 1251,410 1269,462 1261,470 1257,471 1249,465 1237,443 1237,439 1246,430 1247,425 1229,393 1225,392 1204,403 1199,418 1195,446 1224,501 1229,507 1262,520 1268,520 1306,498 1310,462 1293,416 1297,406 1301,404 1307,406 1322,431 1322,435 1312,446 1331,482 1356,470 1360,462 1366,430 1335,372 1325,365Z M715,303 714,306 718,313 721,312 731,319 738,318 732,308 722,302Z M713,294 714,296 724,294 728,298 732,298 738,290 743,293 748,302 763,305 753,297 752,289 740,283Z M206,276 158,339 185,360 196,351 200,351 261,398 256,410 257,417 283,435 331,373 307,352 302,352 289,360 231,316 228,310 233,296Z M1236,246 1211,268 1218,282 1217,285 1159,335 1142,327 1118,349 1169,409 1195,389 1190,370 1248,320 1265,328 1288,308 1288,304Z M206,618 204,668 217,662 219,675 216,685 203,678 203,701 216,709 217,739 202,745 213,747 218,753 219,789 232,854 229,861 219,865 219,871 222,876 233,873 238,876 263,944 274,965 281,971 310,970 284,917 266,866 269,858 290,852 317,852 331,856 353,854 399,865 404,870 413,868 449,878 462,884 474,895 481,896 501,911 515,916 539,934 569,948 597,966 605,963 615,968 622,966 605,957 601,953 603,951 613,951 629,941 724,903 771,871 792,865 793,869 784,879 784,886 788,889 784,900 791,911 781,929 787,937 787,944 794,940 808,915 814,910 812,901 816,894 808,886 811,883 811,877 817,870 823,883 822,904 819,911 824,921 843,913 857,913 869,929 870,952 876,965 879,966 884,954 874,930 874,924 876,922 893,924 922,919 925,923 923,946 917,953 919,962 924,964 928,953 928,929 931,926 937,926 943,930 945,922 956,921 961,928 969,931 975,924 963,906 962,897 948,868 947,852 925,802 928,797 959,795 980,790 1006,791 1007,786 1010,787 1014,783 1027,779 1065,778 1076,782 1107,805 1117,821 1119,820 1115,816 1117,814 1123,816 1124,811 1094,783 1070,775 1050,773 987,777 947,790 924,792 915,778 916,771 934,756 969,734 1002,700 1031,693 1042,695 1018,725 1016,732 1045,702 1060,692 1073,672 1098,672 1114,661 1120,662 1124,667 1123,649 1153,613 1171,596 1175,596 1178,601 1177,616 1159,636 1143,667 1145,668 1155,661 1180,633 1187,633 1193,648 1188,659 1187,669 1181,676 1157,689 1136,716 1110,734 1141,726 1164,713 1168,713 1174,721 1173,726 1158,735 1157,743 1135,762 1122,779 1165,751 1212,735 1218,738 1215,792 1202,856 1183,911 1155,967 1156,971 1185,971 1191,965 1201,945 1227,877 1242,814 1249,731 1268,710 1266,670 1278,667 1240,630 1217,549 1197,502 1176,463 1130,398 1075,341 1011,292 933,251 857,226 783,213 681,213 640,219 585,232 511,261 485,274 431,308 392,339 353,377 307,434 278,481 260,517 244,557 231,604 229,606 220,604 214,607Z M871,915 877,913 889,918 877,920Z M896,909 901,907 907,912 901,915Z M863,896 867,899 864,903 861,900Z M655,895 659,893 663,896 658,898Z M655,883 658,881 671,892 668,894Z M743,880 745,882 743,884 741,882Z M737,883 737,886 731,891 706,900 694,901 680,908 671,902 674,899 671,896 673,893 683,892 679,889 681,885 696,888 705,884 708,889 713,890 711,886 720,878 725,884 732,881Z M657,858 659,856 673,858 687,865 708,868 716,874 709,876 706,873 695,873 691,869 683,870 672,867Z M655,853 657,855 655,857 653,855Z M799,848 803,844 808,847 814,843 819,857 812,860 804,850 800,853Z M792,838 793,844 788,853 790,857 788,859 777,855Z M824,837 826,840 823,844 821,839Z M807,837 809,839 807,841 805,839Z M657,918 640,928 630,930 596,952 585,942 562,936 553,928 537,926 464,879 414,863 391,851 420,847 421,852 428,852 435,848 453,847 455,851 462,851 479,859 483,857 488,859 493,855 496,860 498,858 550,856 564,851 526,851 515,856 511,854 493,855 473,850 463,852 458,848 463,843 480,842 501,833 515,833 543,824 572,821 581,817 602,817 621,827 647,861 645,866 650,874 646,880 649,887 644,897 638,896 638,901Z M829,787 831,797 826,801 824,798Z M561,783 580,809 575,815 570,813 559,789Z M1012,781 1009,784 979,791 975,788 984,782 1001,779Z M316,781 318,779 323,781 321,783Z M325,779 331,776 350,786 358,782 377,792 383,798 380,801 389,807 385,809 361,796 342,790Z M848,770 858,767 864,773 868,766 870,768 868,777 882,767 886,771 890,766 898,773 897,784 916,803 923,821 927,819 930,822 935,835 934,849 943,868 946,886 955,904 951,914 941,911 927,913 919,906 913,906 897,889 895,882 889,892 892,902 890,904 886,904 874,896 870,882 864,885 854,901 839,902 835,899 833,881 841,871 843,862 840,833 845,817 840,814 840,811 849,798 850,788 846,787 835,797 833,789Z M297,763 303,761 307,765 302,767Z M866,764 868,760 875,763 868,766Z M249,759 259,757 268,760 287,773 293,773 312,783 403,820 429,839 427,841 401,840 394,845 385,844 381,850 346,845 339,847 311,845 265,851 261,847 256,828 248,768 251,762 260,764 257,761 251,762Z M914,748 914,751 904,760 910,757 913,759 905,768 902,763 899,765 890,760 899,751 910,746Z M936,743 938,746 924,759 922,755 930,745Z M524,727 532,736 531,741 525,737 522,731Z M511,710 518,717 516,722 509,715Z M732,700 736,705 733,717 736,740 735,756 731,760 721,761 715,768 703,768 701,765 709,753 720,750 715,741 725,726 728,716 726,714 722,717 714,734 708,740 703,737 703,734 718,713 721,701 724,698Z M486,677 495,688 493,693 485,686Z M652,673 673,683 711,687 707,697 678,735 695,746 701,742 704,744 695,759 692,768 694,772 732,765 745,772 771,764 772,757 785,756 789,760 820,744 826,736 833,732 853,743 849,747 855,747 864,756 839,774 830,775 830,781 822,787 818,794 821,801 819,803 816,798 814,808 812,810 804,808 794,822 790,818 785,822 781,818 778,821 776,818 779,814 774,809 769,813 759,811 755,816 750,814 779,788 777,787 748,809 737,812 716,835 701,845 698,851 703,856 707,856 709,853 703,851 707,847 718,847 734,834 743,833 761,845 766,843 773,848 771,854 774,859 767,866 758,869 755,877 750,881 746,879 744,881 737,876 734,869 687,853 654,831 647,835 644,832 647,828 635,827 634,822 631,826 626,825 625,819 621,820 619,816 605,816 601,812 601,806 624,763 647,733 655,732 670,743 660,759 671,764 679,774 683,768 668,756 668,752 675,751 687,759 693,754 674,743 676,738 671,737 667,731 654,730 650,727 662,704 661,701 641,728 634,727 625,721 636,708Z M743,668 749,677 747,679 740,677Z M1076,664 1078,667 1073,670 1071,667Z M1084,666 1087,662 1095,662 1099,667 1090,670Z M1048,658 1057,664 1056,670 1049,670 1045,667 1045,661Z M657,651 662,649 664,652 659,654Z M454,649 466,661 470,668 468,673 456,663 452,651Z M252,650 254,648 260,650 306,693 313,681 326,681 367,697 391,716 394,715 390,710 392,707 464,744 507,760 522,769 543,774 555,792 565,815 562,818 547,819 515,828 441,839 438,834 442,829 424,818 406,799 388,793 357,775 307,758 250,751 246,745 246,721 249,718 246,713 246,692 252,684 249,680Z M740,647 744,651 741,655 738,653Z M1016,646 1018,648 1012,653 1010,651Z M1030,645 1034,651 1035,666 1053,675 1046,682 1035,678 1020,662 1020,656Z M1108,638 1112,642 1110,645 1105,641Z M417,631 421,634 419,637 415,635Z M855,629 840,644 821,653 794,655 789,652 806,633 811,637 816,633 820,636 830,636 835,631 844,635 851,627Z M461,627 463,629 461,631 459,629Z M432,620 436,626 434,628 430,626Z M717,611 724,611 727,620 732,623 733,632 730,636 715,616Z M420,606 422,608 420,610 418,608Z M1007,604 1009,608 1000,616 998,612Z M1010,599 1012,601 1010,603 1008,601Z M429,598 454,620 454,627 451,630 427,603Z M413,597 417,601 416,606 410,601Z M1033,592 1035,597 1025,608 1012,631 1012,639 1006,644 1004,641 1007,638 1007,627 1021,601 1030,592Z M896,586 898,588 896,590 894,588Z M336,597 341,592 344,593 368,618 375,622 363,595 353,585 359,581 369,589 372,582 378,592 397,612 403,631 409,635 409,639 419,642 419,652 425,656 428,677 438,686 444,697 451,704 456,705 444,691 439,678 430,669 430,652 424,648 426,640 431,642 431,646 439,655 441,662 450,667 459,686 464,684 469,689 473,701 479,704 483,713 486,714 489,711 499,727 513,738 516,749 527,753 530,762 527,764 479,741 473,741 370,691 364,685 364,680 351,671 351,665 355,661 363,662 376,671 402,677 386,667 364,640 346,631 340,625 335,610Z M582,580 588,581 600,592 620,622 643,643 645,670 643,680 622,712 618,726 625,731 635,732 637,735 597,795 597,804 593,811 590,811 580,799 566,772 507,690 465,647 467,643 495,650 524,680 562,706 548,690 550,685 577,691 605,714 604,709 585,688 512,619 512,614 528,599 535,598 543,592 563,592Z M1090,579 1111,607 1113,617 1119,626 1120,636 1116,637 1101,622 1098,622 1097,634 1101,651 1093,656 1086,656 1083,653 1082,645 1079,655 1070,658 1067,654 1067,620 1064,618 1060,625 1058,654 1056,656 1048,654 1041,660 1039,646 1043,640 1045,613 1040,610 1037,613 1036,621 1025,631 1023,627 1030,611 1042,599 1046,585 1051,579 1060,579 1067,575Z M566,573 570,578 552,590 550,588Z M1052,572 1054,570 1060,572 1058,574Z M1059,570 1068,564 1081,567 1079,571 1061,572Z M694,565 715,563 723,569 730,583 729,595 720,603 710,601 697,584 692,571Z M445,563 447,569 442,575 440,571Z M353,561 359,566 359,570 350,580 347,576 347,564Z M432,557 438,567 429,581 426,577 429,571 428,563Z M733,551 742,557 744,562 742,565 728,560Z M375,551 377,553 375,556 373,554Z M415,548 422,552 422,575 417,582 427,588 423,595 406,576 414,563 413,550Z M403,547 409,554 409,560 404,568 399,565 396,558Z M445,538 450,546 448,555 443,544Z M738,537 740,535 744,537 742,539Z M356,534 359,547 357,552 345,552 321,565 296,589 292,586 292,582 279,595 280,597 283,595 285,599 263,619 259,618 274,601 272,598 293,576 296,577 311,554 344,529 349,528Z M712,516 715,521 701,529 706,535 704,540 707,542 724,537 727,540 725,553 721,557 707,562 692,561 687,555 677,519 681,517 686,525 691,518Z M722,510 724,517 721,524 718,521 718,514Z M365,522 371,515 377,518 381,512 387,510 398,512 409,509 419,510 428,516 431,526 438,530 435,535 440,554 438,556 433,553 429,554 422,545 413,546 410,542 404,544 400,542 394,552 391,546 387,550 383,544 385,542 389,544 386,540 393,536 393,532 388,530 383,535 376,535 367,528Z M432,506 437,512 435,514 430,509Z M730,497 732,499 729,502 727,500Z M426,497 431,500 429,505 424,499Z M641,491 643,493 641,495 639,493Z M702,649 699,652 663,644 645,637 632,624 633,619 640,623 646,620 643,614 634,610 639,605 632,597 627,596 621,587 614,584 616,579 611,573 604,574 595,566 597,554 614,532 610,529 603,537 600,521 585,530 583,537 576,543 569,543 568,547 556,556 543,572 537,573 533,581 527,582 516,594 511,595 505,605 489,608 483,613 462,576 453,547 452,531 433,493 437,490 449,490 462,496 482,499 487,497 490,500 505,496 513,498 520,496 533,501 547,497 550,502 548,510 558,516 558,527 562,528 564,500 570,490 580,485 588,486 593,482 600,482 610,473 618,480 623,465 629,462 631,466 622,484 630,502 630,509 635,515 638,515 644,506 647,508 648,526 663,579 672,600Z M602,449 603,458 597,461 594,457 595,452Z M638,441 641,444 640,460 637,462 632,456Z M613,440 615,443 611,447 609,445Z M829,437 851,460 856,472 857,514 847,539 841,566 828,581 825,593 793,640 776,657 772,653 773,649 782,641 799,616 810,589 827,565 827,560 836,543 836,536 840,531 843,515 841,489 836,475 836,466 827,445Z M814,420 818,426 816,428 811,424Z M653,421 662,420 666,425 662,446 662,483 667,512 694,590 708,618 730,651 727,655 713,653 701,637 671,578 655,529 647,478 647,463 653,456 647,449 646,429Z M683,419 686,425 683,428 681,426Z M813,412 817,418 815,421 811,417Z M695,408 701,422 699,458 694,464 691,464 684,457 684,447 687,443 685,426 687,417Z M748,401 750,405 747,417 750,424 740,439 736,430 730,428 723,463 715,466 712,463 713,452 709,449 709,445 714,441 710,435 713,418 718,413 731,420 740,408 740,404Z M816,378 822,381 822,387 827,392 828,407 833,407 847,426 848,431 845,434 832,429 832,424 814,401 812,385Z M797,376 799,381 791,404 797,402 799,404 795,412 806,425 807,432 815,437 829,464 836,509 834,532 815,573 803,586 792,615 782,626 779,617 775,617 774,630 777,636 768,643 767,650 762,656 753,656 750,652 759,650 760,647 749,646 739,640 741,617 757,612 774,614 780,604 768,609 749,607 739,599 736,590 737,575 746,563 751,566 783,570 785,572 783,575 784,590 787,592 791,588 791,577 787,572 797,566 806,566 814,560 804,557 788,562 768,562 766,560 756,562 750,557 747,551 749,548 767,547 758,535 759,531 753,525 754,522 761,519 774,519 781,515 747,517 745,514 753,510 760,502 776,499 774,497 749,498 747,494 752,478 748,476 742,483 737,480 746,469 752,471 761,459 770,454 797,454 804,447 803,443 780,450 774,450 771,447 767,447 763,451 760,449 761,443 776,425 782,406 787,399 789,379Z M777,376 779,381 772,397 769,394 769,378Z M801,367 803,369 801,372 799,370Z M762,359 765,361 764,396 771,403 764,419 760,417 755,376Z M835,357 837,359 835,364 833,362Z M794,357 796,359 794,362 792,360Z M801,355 803,360 800,362 798,358Z M678,363 689,356 700,354 717,357 722,361 735,362 749,376 751,389 747,394 742,382 737,381 731,391 719,391 706,378 719,370 715,369 710,362 699,364 692,362 690,364 692,373 700,385 688,390 681,379Z M691,338 693,341 689,345 687,340Z M829,336 833,344 828,352 828,361 823,367 821,363 826,349 826,339Z M844,334 847,339 845,344 841,338Z M794,332 796,337 792,342 792,347 781,359 778,370 776,360 773,357 767,359 765,356 772,346 779,345 783,339 789,338Z M839,325 843,330 841,332 837,328Z M812,318 818,320 823,328 813,366 810,364 814,337 810,322Z M836,310 839,310 846,320 844,326 833,313Z M807,301 809,306 815,309 813,311 805,309Z M694,297 695,303 689,309 685,305 686,300Z M797,295 803,300 801,304 795,300Z M816,285 818,288 815,292 812,288Z M826,280 828,282 826,290 824,288Z M781,263 787,267 794,283 792,286 782,276 778,267Z M794,261 798,262 803,270 805,278 802,282 795,277 791,265Z M842,253 896,269 953,294 1021,336 1061,370 1113,426 1155,487 1183,545 1198,591 1194,593 1179,584 1168,584 1125,632 1112,598 1100,579 1086,567 1082,557 980,522 971,521 962,524 947,515 920,485 915,483 914,489 928,507 950,527 952,537 948,550 951,558 965,538 971,542 984,538 993,542 998,549 1003,547 1006,550 1004,554 1014,564 1024,557 1032,555 1036,561 1048,563 1050,566 1039,571 1017,593 1014,590 1014,584 1021,574 1019,571 1014,574 999,593 1000,600 994,607 995,619 988,630 979,629 983,637 991,644 992,654 937,702 885,755 878,756 872,749 874,746 883,748 885,745 881,739 877,722 854,698 841,689 838,689 837,693 858,711 866,727 856,733 851,731 855,727 851,723 852,720 840,710 836,699 830,695 833,699 834,714 841,723 839,725 827,724 821,728 819,733 817,731 810,736 808,734 814,726 798,716 789,700 787,702 790,719 796,721 796,730 803,738 798,743 792,743 793,746 786,752 777,750 772,753 756,695 757,677 762,672 775,681 796,678 825,680 831,683 836,675 835,652 893,601 900,601 905,605 923,608 927,611 937,611 965,623 973,623 966,617 966,610 956,597 956,576 947,585 943,582 942,577 938,576 932,600 925,605 916,603 910,598 911,591 905,591 902,582 897,578 902,566 901,562 895,563 889,576 883,572 878,573 881,580 876,582 887,593 885,604 871,614 862,609 854,612 848,619 840,615 833,616 829,613 822,615 820,613 837,580 849,563 862,524 862,468 857,453 859,451 871,453 890,462 898,470 905,471 896,461 881,451 855,440 855,426 844,405 838,403 833,396 832,384 838,378 840,380 838,391 842,393 848,388 846,379 857,346 851,315 841,304 843,263 840,255Z M829,252 834,256 838,265 838,285 835,288 827,260Z M676,264 694,262 696,264 689,270 687,269 685,271 687,273 700,265 741,250 758,262 772,268 778,285 790,297 795,310 783,327 775,327 770,332 765,327 755,328 755,341 749,354 750,361 747,363 720,346 714,346 703,340 708,335 718,338 724,335 729,340 733,338 728,325 719,317 714,319 711,330 693,334 687,331 690,321 699,310 703,293 699,291 696,294 691,286 687,286 677,277 674,271Z M767,246 769,249 766,252 764,248Z M669,249 662,256 652,258 664,264 667,274 676,278 672,287 679,292 682,300 677,310 679,314 677,319 684,322 679,331 684,347 679,352 673,350 673,334 668,346 673,354 671,370 676,382 677,393 673,409 661,408 658,413 648,418 635,419 577,461 565,473 561,472 549,485 540,489 475,482 441,483 415,493 411,499 412,505 408,508 377,508 367,511 362,516 359,526 356,523 348,522 344,526 332,530 299,558 268,592 265,590 274,560 290,523 315,476 366,407 417,357 464,321 538,281 588,262 622,253 666,246Z M682,245 685,249 677,254 675,250Z M717,244 720,246 718,248 715,246Z M748,245 758,243 761,246 756,252Z M716,245 696,258 687,260 681,258 694,246 702,243Z M351,144 242,233 233,244 274,292 298,273 298,268 286,247 298,237 349,300 339,316 359,340 363,340 423,291 425,286 406,262 398,263 387,269 336,208 336,205 348,196 369,214 394,193 357,146Z M1038,98 1020,124 1030,137 1030,141 987,205 971,200 952,228 1016,272 1022,273 1039,247 1025,229 1051,190 1053,207 1050,240 1061,249 1068,250 1110,229 1112,231 1087,269 1064,264 1047,291 1097,326 1116,336 1134,310 1134,307 1125,298 1125,292 1165,232 1171,230 1184,234 1201,209 1201,204 1147,168 1099,191 1097,189 1100,138Z M573,53 506,73 485,104 497,148 527,161 584,155 589,159 590,168 586,173 561,181 556,181 546,168 507,179 507,188 515,208 550,223 615,206 640,173 640,165 630,130 625,125 597,114 555,120 540,120 536,117 535,108 539,104 568,96 576,108 581,109 613,100 618,96 611,72 606,67Z M849,41 840,74 851,80 854,85 837,149 831,160 817,159 815,161 807,191 826,199 913,222 924,221 957,205 967,164 957,148 973,140 983,108 982,101 957,69Z M888,145 915,152 919,156 919,167 913,178 907,180 880,171 884,149Z M899,98 903,95 930,104 933,108 930,121 922,126 897,119 894,113Z M807,35 735,36 735,68 737,72 742,72 745,76 746,148 742,153 716,155 708,147 707,77 717,70 716,36 645,36 643,38 644,71 660,78 663,172 691,194 762,193 792,168 791,76 794,72 808,68Z"/>
</svg>
