<svg xmlns="http://www.w3.org/2000/svg"
     viewBox="0 0 848 221"
     color="#888B95"
     role="img"
     aria-labelledby="title">
  <title id="title">FS TUL</title>
  <path fill="currentColor" d="M87.250 4.000 L86.500 4.000 L86.000 3.500 L85.750 3.500 L85.000 3.000 L83.500 3.000 L83.250 2.750 L10.250 2.750 L10.000 3.000 L8.500 3.000 L8.250 3.250 L7.750 3.250 L7.250 3.750 L6.750 3.750 L6.500 4.000 L5.750 4.250 L5.000 5.000 L4.250 5.250 L2.000 7.750 L2.000 8.250 L1.500 8.750 L1.500 9.000 L1.000 9.750 L1.000 10.750 L0.750 11.000 L0.750 11.750 L0.500 12.000 L0.500 153.500 L0.750 153.750 L0.750 154.250 L1.000 154.500 L1.000 155.500 L1.250 155.750 L2.000 157.500 L4.000 159.750 L4.250 159.750 L5.250 160.750 L6.000 161.000 L6.500 161.500 L6.750 161.500 L7.000 161.750 L7.750 161.750 L8.500 162.250 L9.250 162.250 L9.500 162.500 L13.500 162.500 L13.750 162.250 L14.250 162.250 L14.500 162.000 L15.000 162.000 L15.250 161.750 L16.000 161.750 L17.250 160.750 L18.000 160.500 L20.500 158.000 L20.750 157.250 L21.750 156.000 L21.750 155.250 L22.000 155.000 L22.000 154.500 L22.250 154.250 L22.250 153.500 L22.500 153.250 L22.500 93.750 L23.250 93.000 L65.750 93.000 L66.000 92.750 L67.250 92.750 L67.500 92.500 L68.000 92.500 L68.500 92.000 L69.000 92.000 L69.250 91.750 L70.000 91.500 L70.750 90.750 L71.000 90.750 L73.250 88.500 L73.250 88.250 L73.750 87.750 L73.750 87.500 L74.750 85.750 L74.750 84.750 L75.000 84.500 L75.000 83.250 L75.250 83.000 L75.250 80.750 L75.000 80.500 L75.000 79.500 L74.750 79.250 L74.750 78.250 L74.500 78.000 L73.750 76.250 L73.000 75.500 L73.000 75.250 L70.750 73.000 L70.000 72.750 L69.250 72.000 L68.500 72.000 L67.250 71.250 L66.250 71.250 L66.000 71.000 L23.250 71.000 L22.500 70.250 L22.500 25.500 L23.250 24.750 L83.750 24.750 L84.000 24.500 L84.750 24.500 L85.500 24.000 L86.000 24.000 L86.250 23.750 L87.500 23.250 L88.000 22.750 L88.250 22.750 L88.750 22.250 L89.000 22.250 L90.500 20.750 L90.500 20.500 L91.000 20.000 L91.000 19.750 L91.750 19.000 L92.000 17.750 L92.500 17.250 L92.500 16.500 L92.750 16.250 L92.750 14.000 L93.000 13.750 L93.000 13.500 L92.750 13.250 L92.750 11.250 L92.500 11.000 L92.500 10.500 L92.000 9.750 L91.750 8.500 L91.000 7.750 L91.000 7.500 L90.500 7.000 L90.500 6.750 L89.000 5.250 L88.750 5.250 L88.250 4.750 L88.000 4.750 Z M190.250 0.500 L189.000 0.500 L188.750 0.750 L185.250 0.750 L185.000 1.000 L181.750 1.000 L181.500 1.250 L180.500 1.250 L180.250 1.500 L179.500 1.500 L179.250 1.750 L178.750 1.750 L178.500 2.000 L177.000 2.000 L176.250 2.500 L175.500 2.500 L174.750 3.000 L173.750 3.000 L172.000 4.000 L171.250 4.000 L171.000 4.250 L170.750 4.250 L170.500 4.500 L170.250 4.500 L170.000 4.750 L169.750 4.750 L169.500 5.000 L169.250 5.000 L169.000 5.250 L168.750 5.250 L168.500 5.500 L166.750 6.250 L166.250 6.750 L165.000 7.250 L164.250 8.000 L163.500 8.250 L162.750 9.000 L162.500 9.000 L161.750 9.750 L161.500 9.750 L160.250 11.000 L160.000 11.000 L156.250 14.750 L156.250 15.000 L154.000 17.500 L154.000 17.750 L153.000 19.000 L152.750 19.750 L152.000 20.500 L152.000 21.000 L151.000 22.250 L151.000 22.500 L150.000 24.250 L150.000 24.750 L149.000 26.500 L149.000 27.250 L148.000 29.000 L148.000 30.000 L147.750 30.250 L147.750 30.750 L147.250 31.500 L147.250 32.250 L147.000 32.500 L147.000 34.000 L146.750 34.250 L146.750 34.750 L146.500 35.000 L146.500 36.000 L146.250 36.250 L146.250 37.500 L146.000 37.750 L146.000 40.750 L145.750 41.000 L145.750 48.750 L146.000 49.000 L146.000 52.000 L146.250 52.250 L146.250 53.500 L146.500 53.750 L146.500 54.250 L146.750 54.500 L146.750 55.500 L147.000 55.750 L147.000 57.000 L147.250 57.250 L147.250 58.000 L147.500 58.250 L147.500 58.500 L147.750 58.750 L147.750 59.250 L148.000 59.500 L148.000 60.500 L149.000 62.250 L149.000 63.000 L149.250 63.250 L149.500 64.000 L150.000 64.500 L150.000 65.250 L150.750 66.000 L150.750 66.250 L151.000 66.500 L151.250 67.250 L151.750 67.750 L152.000 68.500 L152.750 69.250 L153.000 70.000 L154.000 71.000 L154.000 71.250 L155.500 72.750 L155.500 73.000 L158.250 75.750 L158.500 75.750 L160.250 77.500 L160.500 77.500 L161.250 78.250 L161.500 78.250 L162.000 78.750 L162.250 78.750 L163.000 79.500 L163.250 79.500 L164.500 80.500 L165.250 80.750 L166.000 81.500 L166.250 81.500 L167.250 82.250 L169.000 83.000 L169.750 83.750 L170.250 83.750 L170.500 84.000 L171.250 84.250 L171.750 84.750 L172.250 84.750 L172.500 85.000 L173.250 85.250 L173.750 85.750 L174.250 85.750 L176.000 86.750 L176.500 86.750 L176.750 87.000 L177.000 87.000 L178.250 87.750 L178.750 87.750 L180.500 88.750 L181.750 89.000 L182.750 89.750 L183.500 89.750 L185.250 90.750 L186.000 90.750 L187.750 91.750 L188.500 91.750 L188.750 92.000 L189.250 92.000 L190.250 92.750 L191.000 92.750 L192.750 93.750 L194.000 94.000 L194.500 94.500 L194.750 94.500 L195.000 94.750 L195.500 94.750 L195.750 95.000 L196.000 95.000 L196.250 95.250 L196.500 95.250 L196.750 95.500 L197.000 95.500 L197.250 95.750 L197.500 95.750 L197.750 96.000 L198.000 96.000 L198.250 96.250 L200.000 97.000 L200.500 97.500 L201.250 97.750 L201.750 98.250 L202.000 98.250 L202.500 98.750 L202.750 98.750 L203.750 99.750 L204.000 99.750 L204.750 100.500 L205.000 100.500 L208.000 103.500 L208.000 103.750 L208.750 104.500 L209.000 105.250 L209.750 106.000 L209.750 106.250 L210.000 106.500 L210.000 107.000 L210.500 107.500 L210.500 107.750 L211.000 108.500 L211.250 109.750 L211.500 110.000 L211.500 110.250 L211.750 110.500 L211.750 111.000 L212.000 111.250 L212.000 113.000 L212.250 113.250 L212.250 114.500 L212.500 114.750 L212.500 119.500 L212.250 119.750 L212.250 121.500 L212.000 121.750 L212.000 123.500 L211.750 123.750 L211.750 124.250 L211.500 124.500 L211.500 125.250 L211.000 126.000 L211.000 127.000 L210.750 127.250 L210.500 128.000 L210.000 128.500 L210.000 129.250 L209.000 130.500 L209.000 131.000 L208.750 131.250 L208.750 131.500 L207.000 133.500 L207.000 133.750 L204.500 136.250 L204.250 136.250 L202.250 138.000 L201.750 138.000 L201.250 138.500 L201.000 138.500 L200.250 139.000 L199.750 139.000 L199.250 139.500 L199.000 139.500 L198.250 140.000 L197.250 140.000 L197.000 140.250 L196.500 140.250 L196.250 140.500 L196.000 140.500 L195.750 140.750 L195.250 140.750 L195.000 141.000 L193.000 141.000 L192.750 141.250 L191.750 141.250 L191.500 141.500 L185.750 141.500 L185.500 141.250 L184.250 141.250 L184.000 141.000 L182.250 141.000 L182.000 140.750 L181.250 140.750 L181.000 140.500 L180.500 140.500 L179.750 140.000 L178.750 140.000 L178.500 139.750 L177.750 139.500 L177.250 139.000 L176.500 139.000 L175.250 138.000 L174.750 138.000 L174.500 137.750 L174.250 137.750 L173.500 137.000 L173.250 137.000 L172.000 135.750 L171.750 135.750 L170.000 134.000 L170.000 133.750 L168.750 132.500 L168.750 132.250 L168.000 131.500 L168.000 131.250 L167.750 131.000 L167.750 130.500 L167.000 129.750 L167.000 129.500 L166.750 129.250 L166.750 128.500 L166.250 128.000 L166.250 127.750 L165.750 127.000 L165.750 126.250 L165.500 126.000 L165.500 125.500 L165.250 125.250 L165.250 124.750 L165.000 124.500 L165.000 124.000 L164.750 123.750 L164.750 122.000 L164.500 121.750 L164.500 120.750 L164.250 120.500 L164.250 116.000 L164.000 115.750 L164.000 115.000 L163.750 114.750 L163.750 113.250 L163.000 112.250 L163.000 112.000 L162.750 111.750 L162.750 111.250 L161.750 110.250 L161.750 110.000 L159.750 108.000 L159.000 107.750 L158.250 107.000 L157.500 107.000 L156.250 106.250 L155.500 106.250 L155.250 106.000 L151.000 106.000 L150.750 106.250 L149.500 106.500 L148.750 107.000 L148.250 107.000 L148.000 107.250 L147.750 107.250 L147.000 108.000 L146.250 108.250 L144.750 109.750 L144.750 110.000 L144.000 110.750 L144.000 111.250 L143.250 112.000 L143.250 112.250 L143.000 112.500 L143.000 113.250 L142.750 113.500 L142.750 114.000 L142.250 114.750 L142.250 121.500 L142.500 121.750 L142.500 123.500 L142.750 123.750 L142.750 124.750 L143.000 125.000 L143.000 127.000 L143.250 127.250 L143.250 128.000 L143.750 128.750 L143.750 129.500 L144.000 129.750 L144.000 131.000 L144.250 131.250 L144.250 131.500 L144.500 131.750 L144.500 132.250 L145.000 133.000 L145.000 134.000 L146.000 135.750 L146.000 136.250 L146.250 136.500 L146.500 137.250 L147.000 137.750 L147.000 138.250 L147.250 138.500 L147.500 139.250 L148.000 139.750 L148.000 140.250 L148.250 140.500 L148.250 140.750 L148.750 141.250 L149.250 142.500 L150.000 143.250 L150.250 144.000 L151.000 144.750 L151.000 145.000 L151.750 145.750 L151.750 146.000 L152.500 146.750 L152.500 147.000 L154.000 148.500 L154.000 148.750 L157.000 151.750 L157.250 151.750 L158.750 153.250 L159.000 153.250 L160.250 154.500 L160.500 154.500 L161.000 155.000 L161.250 155.000 L161.750 155.500 L162.000 155.500 L162.500 156.000 L162.750 156.000 L163.500 156.750 L164.000 156.750 L165.250 157.750 L165.500 157.750 L165.750 158.000 L166.000 158.000 L166.250 158.250 L166.500 158.250 L169.250 159.750 L169.750 159.750 L170.000 160.000 L170.250 160.000 L171.000 160.500 L171.500 160.500 L171.750 160.750 L172.500 160.750 L172.750 161.000 L173.250 161.000 L173.750 161.500 L174.250 161.500 L174.500 161.750 L175.750 161.750 L176.000 162.000 L176.500 162.000 L176.750 162.250 L177.250 162.250 L177.500 162.500 L178.250 162.500 L178.500 162.750 L180.250 162.750 L180.500 163.000 L181.750 163.000 L182.000 163.250 L183.500 163.250 L183.750 163.500 L193.500 163.500 L193.750 163.250 L195.500 163.250 L195.750 163.000 L196.500 163.000 L196.750 162.750 L198.500 162.750 L198.750 162.500 L199.750 162.500 L200.000 162.250 L200.250 162.250 L200.500 162.000 L201.000 162.000 L201.250 161.750 L202.500 161.750 L202.750 161.500 L203.250 161.500 L203.750 161.000 L204.250 161.000 L204.500 160.750 L205.500 160.750 L207.000 159.750 L207.750 159.750 L209.500 158.750 L210.000 158.750 L210.750 158.000 L211.000 158.000 L211.250 157.750 L212.500 157.250 L213.000 156.750 L213.750 156.500 L214.500 155.750 L215.250 155.500 L216.000 154.750 L216.250 154.750 L217.000 154.000 L217.250 154.000 L218.500 152.750 L218.750 152.750 L223.500 148.000 L223.500 147.750 L225.750 145.250 L226.000 144.500 L226.750 143.750 L227.000 143.000 L227.750 142.250 L227.750 141.750 L228.500 141.000 L228.500 140.750 L228.750 140.500 L228.750 140.250 L229.000 140.000 L229.000 139.750 L229.250 139.500 L229.250 139.250 L230.750 136.500 L230.750 136.000 L231.000 135.750 L231.000 135.500 L231.250 135.250 L231.250 134.750 L231.750 134.000 L231.750 133.250 L232.000 133.000 L232.000 132.500 L232.250 132.250 L232.250 132.000 L232.500 131.750 L232.500 131.250 L232.750 131.000 L232.750 130.000 L233.000 129.750 L233.000 129.250 L233.250 129.000 L233.250 128.500 L233.500 128.250 L233.500 127.250 L233.750 127.000 L233.750 125.500 L234.000 125.250 L234.000 124.000 L234.250 123.750 L234.250 122.250 L234.500 122.000 L234.500 112.000 L234.250 111.750 L234.250 110.000 L234.000 109.750 L234.000 109.000 L233.750 108.750 L233.750 106.750 L233.500 106.500 L233.500 105.750 L233.250 105.500 L233.250 105.250 L233.000 105.000 L233.000 104.500 L232.750 104.250 L232.750 103.000 L232.000 101.750 L232.000 101.250 L231.750 101.000 L231.750 100.250 L231.000 99.250 L231.000 99.000 L230.750 98.750 L230.750 98.250 L230.500 98.000 L230.500 97.750 L230.250 97.500 L230.250 97.250 L230.000 97.000 L229.250 95.250 L228.750 94.750 L228.500 94.000 L227.750 93.250 L227.500 92.500 L226.750 91.750 L226.750 91.500 L226.000 90.750 L226.000 90.500 L224.750 89.250 L224.750 89.000 L220.750 85.000 L220.500 85.000 L217.500 82.250 L216.750 82.000 L215.750 81.000 L215.500 81.000 L215.000 80.500 L214.750 80.500 L212.750 79.000 L212.250 79.000 L211.250 78.000 L210.500 78.000 L209.750 77.250 L209.500 77.250 L209.250 77.000 L208.750 77.000 L208.000 76.250 L207.750 76.250 L207.500 76.000 L207.250 76.000 L207.000 75.750 L206.750 75.750 L206.500 75.500 L206.250 75.500 L203.500 74.000 L202.750 74.000 L202.250 73.500 L202.000 73.500 L201.250 73.000 L200.750 73.000 L199.000 72.000 L198.250 72.000 L196.500 71.000 L195.750 71.000 L194.000 70.000 L193.250 70.000 L193.000 69.750 L192.500 69.750 L192.000 69.250 L191.500 69.250 L191.250 69.000 L190.500 69.000 L188.750 68.000 L188.000 68.000 L186.500 67.000 L185.750 67.000 L185.500 66.750 L184.750 66.500 L184.250 66.000 L183.500 66.000 L182.250 65.000 L181.500 65.000 L180.250 64.000 L179.500 64.000 L178.750 63.250 L178.000 63.000 L177.500 62.500 L177.250 62.500 L176.750 62.000 L176.500 62.000 L175.750 61.250 L175.500 61.250 L174.000 59.750 L173.750 59.750 L172.750 58.750 L172.750 58.500 L171.250 57.000 L171.250 56.750 L170.750 56.250 L170.750 56.000 L170.000 55.000 L170.000 54.750 L169.750 54.500 L169.750 54.000 L168.750 52.250 L168.750 51.250 L168.500 51.000 L168.500 50.250 L168.250 50.000 L168.250 49.500 L168.000 49.250 L168.000 47.250 L167.750 47.000 L167.750 42.000 L168.000 41.750 L168.000 39.750 L168.250 39.500 L168.250 39.000 L168.500 38.750 L168.500 37.750 L168.750 37.500 L168.750 36.500 L169.000 36.250 L169.000 35.750 L169.750 34.500 L169.750 33.750 L170.250 33.250 L171.000 31.500 L172.250 30.000 L172.250 29.750 L175.000 27.000 L175.250 27.000 L176.250 26.000 L176.500 26.000 L176.750 25.750 L177.250 25.750 L178.500 24.750 L179.250 24.750 L181.000 23.750 L181.750 23.750 L182.000 23.500 L182.750 23.500 L183.000 23.250 L183.500 23.250 L183.750 23.000 L184.750 23.000 L185.000 22.750 L188.250 22.750 L188.500 22.500 L190.500 22.500 L190.750 22.750 L194.000 22.750 L194.250 23.000 L195.000 23.000 L195.250 23.250 L195.750 23.250 L196.000 23.500 L196.750 23.500 L197.000 23.750 L197.750 23.750 L199.500 24.750 L200.250 24.750 L201.500 25.750 L202.000 25.750 L202.250 26.000 L202.500 26.000 L203.500 27.000 L203.750 27.000 L206.750 30.000 L206.750 30.250 L207.750 31.250 L207.750 31.500 L208.000 31.750 L208.000 32.250 L208.750 33.000 L208.750 33.250 L209.000 33.500 L209.000 34.000 L210.000 35.750 L210.000 36.500 L210.250 36.750 L210.250 37.250 L210.500 37.500 L210.500 38.250 L210.750 38.500 L210.750 39.000 L211.000 39.250 L211.000 41.250 L211.250 41.500 L211.250 45.750 L211.500 46.000 L211.500 46.750 L211.750 47.000 L211.750 47.750 L212.000 48.000 L212.000 49.000 L212.500 49.500 L213.000 50.750 L214.000 51.750 L214.000 52.000 L216.000 53.750 L216.750 54.000 L217.500 54.750 L218.500 54.750 L218.750 55.000 L219.250 55.000 L220.000 55.500 L224.750 55.500 L225.500 55.000 L226.000 55.000 L226.250 54.750 L227.000 54.750 L228.000 54.000 L228.250 54.000 L228.750 53.500 L229.000 53.500 L231.500 51.000 L231.500 50.750 L232.750 48.500 L232.750 47.750 L233.000 47.500 L233.000 47.000 L233.250 46.750 L233.250 40.250 L233.000 40.000 L233.000 38.250 L232.750 38.000 L232.750 35.750 L232.500 35.500 L232.500 34.750 L232.000 34.000 L232.000 33.250 L231.750 33.000 L231.750 31.750 L231.500 31.500 L231.500 31.000 L231.000 30.250 L231.000 29.750 L230.750 29.500 L230.750 28.750 L230.500 28.500 L230.500 28.000 L229.750 26.750 L229.750 26.250 L229.500 26.000 L229.500 25.750 L229.250 25.500 L229.250 25.250 L229.000 25.000 L229.000 24.750 L228.750 24.500 L228.750 24.250 L228.500 24.000 L228.500 23.750 L228.250 23.500 L227.500 21.750 L227.000 21.250 L226.750 20.500 L226.250 20.000 L226.250 19.750 L225.750 19.250 L225.750 19.000 L225.250 18.500 L225.250 18.250 L224.750 17.750 L224.750 17.500 L222.500 15.000 L222.500 14.750 L219.000 11.250 L218.750 11.250 L216.250 9.000 L216.000 9.000 L215.500 8.500 L215.250 8.500 L213.250 7.000 L212.500 6.750 L212.000 6.250 L211.750 6.250 L211.500 6.000 L211.250 6.000 L211.000 5.750 L210.750 5.750 L210.500 5.500 L210.250 5.500 L207.500 4.000 L207.000 4.000 L206.750 3.750 L206.500 3.750 L206.250 3.500 L205.750 3.500 L205.000 3.000 L204.000 3.000 L203.250 2.500 L202.750 2.500 L202.500 2.250 L202.000 2.250 L201.750 2.000 L200.500 2.000 L200.250 1.750 L199.500 1.750 L199.250 1.500 L198.750 1.500 L198.500 1.250 L197.250 1.250 L197.000 1.000 L194.250 1.000 L194.000 0.750 L190.500 0.750 Z M428.250 208.250 L428.250 210.500 L428.500 210.750 L428.500 211.750 L428.750 212.000 L428.750 212.500 L429.000 212.750 L429.000 213.500 L429.250 213.750 L429.750 215.000 L430.250 215.500 L430.250 215.750 L432.750 218.250 L433.000 218.250 L433.500 218.750 L434.000 218.750 L435.250 219.750 L436.250 219.750 L436.500 220.000 L437.250 220.000 L437.500 220.250 L537.250 220.250 L537.500 220.000 L538.250 220.000 L538.500 219.750 L539.500 219.750 L540.500 219.000 L541.750 218.500 L544.500 215.750 L544.500 215.500 L545.000 215.000 L545.000 214.750 L545.750 213.500 L545.750 212.750 L546.000 212.500 L546.000 212.000 L546.250 211.750 L546.250 210.750 L546.500 210.500 L546.500 208.750 L546.250 208.500 L546.250 207.000 L546.000 206.750 L546.000 206.250 L545.750 206.000 L545.750 205.250 L545.500 205.000 L545.000 203.750 L543.750 202.250 L543.750 202.000 L541.750 200.250 L541.500 200.250 L541.000 199.750 L540.750 199.750 L539.500 199.000 L538.750 199.000 L538.500 198.750 L538.000 198.750 L537.750 198.500 L536.250 198.500 L536.000 198.250 L438.750 198.250 L438.500 198.500 L437.000 198.500 L436.750 198.750 L436.250 198.750 L436.000 199.000 L435.250 199.000 L435.000 199.250 L434.250 199.500 L433.750 200.000 L433.000 200.250 L432.000 201.250 L431.750 201.250 L429.750 203.750 L429.750 204.000 L429.000 205.250 L429.000 206.000 L428.750 206.250 L428.750 206.750 L428.500 207.000 L428.500 208.000 Z M443.250 3.000 L443.000 3.250 L442.500 3.250 L441.250 4.000 L440.750 4.000 L440.000 4.750 L439.750 4.750 L439.250 5.250 L439.000 5.250 L437.750 6.500 L437.750 6.750 L436.500 8.250 L436.500 8.500 L436.000 9.250 L436.000 10.000 L435.750 10.250 L435.750 10.500 L435.500 10.750 L435.500 11.250 L435.250 11.500 L435.250 16.000 L435.750 16.750 L435.750 17.250 L436.000 17.500 L436.000 18.250 L436.250 18.500 L436.250 18.750 L437.000 19.500 L437.000 20.000 L438.000 21.000 L438.000 21.250 L438.500 21.750 L438.750 21.750 L439.750 22.750 L440.500 23.000 L441.500 23.750 L442.000 23.750 L442.750 24.250 L443.250 24.250 L443.500 24.500 L444.250 24.500 L444.500 24.750 L475.750 24.750 L476.500 25.250 L476.500 152.500 L476.750 152.750 L476.750 153.500 L477.000 153.750 L477.000 155.000 L478.000 156.750 L478.000 157.250 L478.750 158.000 L478.750 158.250 L480.750 160.250 L481.000 160.250 L482.250 161.250 L482.500 161.250 L483.250 161.750 L484.000 161.750 L484.250 162.000 L484.500 162.000 L484.750 162.250 L485.250 162.250 L485.500 162.500 L489.750 162.500 L490.000 162.250 L490.250 162.250 L490.500 162.000 L491.000 162.000 L491.250 161.750 L492.250 161.750 L493.000 161.000 L493.250 161.000 L494.250 160.250 L494.500 160.250 L496.250 158.500 L496.250 158.250 L496.750 157.750 L497.000 157.000 L497.750 156.250 L497.750 155.250 L498.000 155.000 L498.000 154.500 L498.500 153.750 L498.500 25.500 L499.250 24.750 L530.250 24.750 L530.500 24.500 L531.500 24.500 L531.750 24.250 L532.250 24.250 L532.500 24.000 L534.250 23.250 L534.750 22.750 L535.500 22.500 L537.000 21.000 L537.000 20.750 L537.750 20.000 L538.000 19.250 L538.500 18.750 L538.500 18.500 L538.750 18.250 L538.750 17.500 L539.000 17.250 L539.000 16.750 L539.500 16.000 L539.500 11.500 L539.250 11.250 L539.250 10.750 L538.750 10.000 L538.750 9.250 L538.500 9.000 L538.500 8.750 L538.000 8.250 L537.750 7.500 L537.000 6.750 L537.000 6.500 L535.750 5.250 L535.500 5.250 L535.000 4.750 L534.750 4.750 L534.000 4.000 L533.500 4.000 L532.250 3.250 L531.750 3.250 L531.500 3.000 L530.000 3.000 L529.750 2.750 L445.000 2.750 L444.750 3.000 Z M577.750 209.000 L577.750 210.000 L578.000 210.250 L578.000 212.000 L578.250 212.250 L578.250 212.750 L579.000 214.000 L579.000 214.500 L579.250 214.750 L579.250 215.000 L580.000 215.750 L580.000 216.000 L582.250 218.250 L582.500 218.250 L583.000 218.750 L584.250 219.250 L584.750 219.750 L585.750 219.750 L586.000 220.000 L586.750 220.000 L587.000 220.250 L686.750 220.250 L687.000 220.000 L687.750 220.000 L688.000 219.750 L688.750 219.750 L689.000 219.500 L689.250 219.500 L689.500 219.250 L691.250 218.500 L693.000 217.000 L693.000 216.750 L694.500 215.000 L694.500 214.750 L695.000 214.000 L695.000 213.500 L695.250 213.250 L695.250 213.000 L695.500 212.750 L695.500 212.250 L695.750 212.000 L695.750 210.250 L696.000 210.000 L696.000 208.750 L695.750 208.500 L695.750 206.750 L695.500 206.500 L695.500 206.000 L695.000 205.250 L695.000 204.750 L694.750 204.500 L694.500 203.750 L693.750 203.000 L693.500 202.250 L691.000 200.000 L690.500 200.000 L690.000 199.500 L689.750 199.500 L689.000 199.000 L688.250 199.000 L688.000 198.750 L687.250 198.750 L687.000 198.500 L685.750 198.500 L685.500 198.250 L588.250 198.250 L588.000 198.500 L586.500 198.500 L586.250 198.750 L585.750 198.750 L585.500 199.000 L584.750 199.000 L583.750 199.750 L582.500 200.250 L581.500 201.250 L581.250 201.250 L581.250 201.500 L580.000 202.750 L580.000 203.000 L579.250 203.750 L579.250 204.000 L579.000 204.250 L579.000 204.750 L578.750 205.000 L578.750 205.250 L578.250 206.000 L578.250 206.500 L578.000 206.750 L578.000 208.750 Z M598.000 2.000 L597.750 2.250 L597.500 2.250 L597.250 2.500 L595.500 3.250 L594.750 4.000 L594.500 4.000 L593.000 5.500 L593.000 5.750 L592.000 7.000 L592.000 7.250 L591.750 7.500 L591.750 8.000 L591.250 8.500 L591.250 9.000 L591.000 9.250 L591.000 10.750 L590.750 11.000 L590.750 120.750 L591.000 121.000 L591.000 124.000 L591.250 124.250 L591.250 125.500 L591.500 125.750 L591.500 126.750 L591.750 127.000 L591.750 127.500 L592.000 127.750 L592.000 129.250 L592.250 129.500 L592.250 130.250 L592.500 130.500 L592.500 131.000 L593.000 131.750 L593.000 132.750 L593.250 133.000 L593.250 133.250 L593.500 133.500 L593.500 134.000 L594.000 134.750 L594.000 135.500 L595.000 137.250 L595.000 138.000 L595.500 138.500 L595.500 138.750 L596.000 139.500 L596.000 140.000 L596.750 140.750 L596.750 141.000 L597.000 141.250 L597.250 142.000 L597.750 142.500 L598.000 143.250 L599.250 144.750 L599.250 145.000 L599.750 145.500 L599.750 145.750 L600.250 146.250 L600.250 146.500 L601.750 148.000 L601.750 148.250 L606.250 152.750 L606.500 152.750 L608.750 154.750 L609.500 155.000 L611.250 156.500 L612.500 157.000 L613.000 157.500 L614.250 158.000 L615.250 158.750 L615.750 158.750 L616.000 159.000 L616.250 159.000 L617.500 159.750 L618.000 159.750 L619.750 160.750 L620.500 160.750 L620.750 161.000 L622.000 161.250 L622.750 161.750 L623.750 161.750 L624.000 162.000 L624.500 162.000 L624.750 162.250 L625.250 162.250 L625.500 162.500 L626.500 162.500 L626.750 162.750 L628.250 162.750 L628.500 163.000 L629.750 163.000 L630.000 163.250 L631.500 163.250 L631.750 163.500 L642.000 163.500 L642.250 163.250 L643.750 163.250 L644.000 163.000 L645.250 163.000 L645.500 162.750 L647.000 162.750 L647.250 162.500 L648.250 162.500 L648.500 162.250 L649.000 162.250 L649.250 162.000 L649.750 162.000 L650.000 161.750 L651.000 161.750 L651.250 161.500 L651.500 161.500 L651.750 161.250 L652.250 161.250 L653.000 160.750 L654.000 160.750 L655.750 159.750 L656.250 159.750 L656.500 159.500 L657.250 159.250 L657.750 158.750 L658.250 158.750 L658.500 158.500 L659.250 158.250 L659.750 157.750 L660.250 157.750 L660.500 157.500 L660.750 157.500 L661.500 156.750 L662.000 156.750 L662.250 156.500 L662.500 156.500 L664.250 155.000 L665.000 154.750 L667.500 152.500 L667.750 152.500 L672.000 148.250 L672.000 148.000 L673.500 146.500 L673.750 145.750 L674.750 144.750 L674.750 144.500 L675.250 144.000 L675.250 143.750 L676.750 141.750 L676.750 141.250 L677.750 140.000 L677.750 139.500 L678.000 139.250 L678.250 138.500 L678.750 138.000 L678.750 137.500 L679.750 135.750 L679.750 135.000 L680.000 134.750 L680.000 134.500 L680.250 134.250 L680.250 133.750 L680.750 133.000 L680.750 132.000 L681.250 131.250 L681.250 130.500 L681.750 129.750 L681.750 128.500 L682.000 128.250 L682.000 127.250 L682.250 127.000 L682.250 126.500 L682.500 126.250 L682.500 125.000 L682.750 124.750 L682.750 122.000 L683.000 121.750 L683.000 10.500 L682.750 10.250 L682.750 9.000 L682.500 8.750 L682.500 8.500 L682.250 8.250 L681.500 6.500 L681.000 6.000 L681.000 5.750 L679.000 3.750 L678.750 3.750 L678.250 3.250 L678.000 3.250 L675.750 2.000 L674.750 2.000 L674.500 1.750 L673.000 1.750 L672.750 1.500 L671.250 1.500 L671.000 1.750 L670.000 1.750 L669.750 2.000 L668.250 2.000 L667.250 2.750 L667.000 2.750 L666.750 3.000 L666.250 3.000 L665.500 3.750 L665.250 3.750 L663.000 6.000 L662.750 6.750 L662.000 7.500 L662.000 8.250 L661.250 9.500 L661.250 10.500 L661.000 10.750 L661.000 120.750 L660.750 121.000 L660.750 122.500 L660.500 122.750 L660.500 123.250 L660.250 123.500 L660.250 124.250 L660.000 124.500 L660.000 125.750 L659.250 127.000 L659.000 128.250 L658.750 128.500 L658.500 129.250 L658.000 129.750 L658.000 130.250 L657.750 130.500 L657.750 130.750 L657.000 131.500 L656.750 132.250 L656.000 133.000 L656.000 133.250 L652.500 136.750 L651.750 137.000 L651.000 137.750 L650.250 138.000 L649.500 138.750 L649.250 138.750 L649.000 139.000 L648.500 139.000 L646.750 140.000 L646.000 140.000 L645.250 140.500 L644.750 140.500 L644.500 140.750 L644.000 140.750 L643.750 141.000 L641.750 141.000 L641.500 141.250 L641.000 141.250 L640.750 141.500 L637.750 141.500 L637.500 141.750 L636.250 141.750 L636.000 141.500 L633.000 141.500 L632.750 141.250 L632.250 141.250 L632.000 141.000 L630.000 141.000 L629.750 140.750 L628.500 140.500 L627.750 140.000 L627.000 140.000 L625.250 139.000 L624.500 139.000 L623.750 138.250 L623.000 138.000 L622.250 137.250 L621.500 137.000 L617.500 133.000 L617.500 132.750 L617.000 132.250 L616.750 131.500 L616.000 130.750 L616.000 130.500 L615.750 130.250 L615.750 129.750 L615.250 129.250 L615.250 129.000 L614.750 128.250 L614.500 127.000 L613.750 125.750 L613.750 124.500 L613.500 124.250 L613.500 123.500 L613.250 123.250 L613.250 122.750 L613.000 122.500 L613.000 121.000 L612.750 120.750 L612.750 10.750 L612.500 10.500 L612.500 9.500 L611.750 8.250 L611.750 7.500 L611.000 6.750 L610.750 6.000 L609.000 4.000 L608.250 3.750 L607.500 3.000 L607.250 3.000 L605.500 2.000 L604.000 2.000 L603.750 1.750 L602.750 1.750 L602.500 1.500 L601.000 1.500 L600.750 1.750 L599.500 1.750 L599.250 2.000 Z M727.250 208.750 L727.250 210.000 L727.500 210.250 L727.500 211.750 L727.750 212.000 L727.750 212.500 L728.000 212.750 L728.000 213.500 L728.250 213.750 L728.500 214.500 L729.500 215.750 L729.500 216.000 L731.750 218.250 L732.000 218.250 L732.500 218.750 L733.000 218.750 L734.250 219.750 L735.250 219.750 L735.500 220.000 L736.250 220.000 L736.500 220.250 L838.250 220.250 L838.500 220.000 L839.250 220.000 L839.500 219.750 L840.500 219.750 L841.750 218.750 L842.250 218.750 L842.750 218.250 L843.000 218.250 L845.500 215.750 L845.750 215.000 L846.250 214.500 L846.250 214.250 L846.750 213.500 L846.750 212.500 L847.000 212.250 L847.000 211.750 L847.250 211.500 L847.250 210.250 L847.500 210.000 L847.750 210.000 L847.750 208.750 L847.500 208.750 L847.250 208.500 L847.250 207.250 L847.000 207.000 L847.000 206.500 L846.750 206.250 L846.750 205.250 L846.500 205.000 L846.000 203.750 L845.500 203.250 L845.500 203.000 L844.500 202.000 L844.500 201.750 L844.000 201.250 L843.750 201.250 L842.750 200.250 L842.500 200.250 L842.000 199.750 L841.750 199.750 L840.500 199.000 L839.750 199.000 L839.500 198.750 L839.000 198.750 L838.750 198.500 L837.250 198.500 L837.000 198.250 L737.750 198.250 L737.500 198.500 L736.250 198.500 L736.000 198.750 L735.500 198.750 L735.250 199.000 L734.250 199.000 L734.000 199.250 L733.250 199.500 L732.750 200.000 L732.000 200.250 L729.250 203.000 L729.000 203.750 L728.500 204.250 L728.500 204.500 L728.000 205.250 L728.000 206.000 L727.750 206.250 L727.750 206.750 L727.500 207.000 L727.500 208.500 Z M755.000 2.250 L754.000 3.000 L753.500 3.000 L752.750 3.750 L752.500 3.750 L750.500 5.750 L750.500 6.000 L750.000 6.500 L750.000 6.750 L749.500 7.250 L749.500 7.500 L749.000 8.250 L749.000 9.000 L748.750 9.250 L748.750 9.750 L748.500 10.000 L748.500 10.500 L748.250 10.750 L748.250 152.250 L748.500 152.500 L748.500 153.250 L748.750 153.500 L748.750 154.000 L749.000 154.250 L749.000 155.000 L749.750 155.750 L750.000 156.500 L750.750 157.250 L750.750 157.500 L753.250 159.750 L753.500 159.750 L755.250 160.750 L756.000 160.750 L756.250 161.000 L756.750 161.000 L757.000 161.250 L825.000 161.250 L825.250 161.000 L825.750 161.000 L826.000 160.750 L827.000 160.750 L827.500 160.250 L827.750 160.250 L828.000 160.000 L828.750 159.750 L829.250 159.250 L829.500 159.250 L831.750 157.000 L832.000 156.250 L832.500 155.750 L832.500 155.500 L833.250 154.250 L833.250 153.750 L833.500 153.500 L833.500 153.000 L833.750 152.750 L833.750 148.250 L833.500 148.000 L833.500 147.500 L833.250 147.250 L833.250 146.750 L832.750 146.000 L832.750 145.500 L832.500 145.250 L832.500 145.000 L832.000 144.500 L831.750 143.750 L829.500 141.500 L829.250 141.500 L828.750 141.000 L827.500 140.500 L827.000 140.000 L826.000 140.000 L825.750 139.750 L825.250 139.750 L825.000 139.500 L771.250 139.500 L771.000 139.250 L770.750 139.250 L770.250 138.500 L770.250 11.000 L770.000 10.750 L770.000 10.250 L769.750 10.000 L769.750 8.750 L769.500 8.500 L769.250 7.750 L768.750 7.250 L768.500 6.500 L768.000 6.000 L768.000 5.750 L766.000 3.750 L765.750 3.750 L765.250 3.250 L765.000 3.250 L762.750 2.000 L761.750 2.000 L761.500 1.750 L760.000 1.750 L759.750 1.500 L758.250 1.500 L758.000 1.750 L757.250 1.750 L757.000 2.000 L755.750 2.000 L755.500 2.250 Z"/>
</svg>
